<svg width="437" height="671" viewBox="0 0 437 671" fill="none" xmlns="http://www.w3.org/2000/svg">
<g clip-path="url(#clip0_428_279)">
<path opacity="0.15" d="M653.792 675.344C315.796 672.802 43.4105 549.312 45.402 399.521C47.3936 249.731 323.008 130.362 661.004 132.904C999 135.446 1271.39 258.937 1269.39 408.727C1267.4 558.518 991.788 677.886 653.792 675.344Z" fill="#233E71"/>
<path opacity="0.3" d="M656.295 628.499C343.759 627.239 91.1899 517.231 92.1662 382.79C93.1425 248.348 347.295 140.383 659.831 141.643C972.366 142.903 1224.94 252.911 1223.96 387.352C1222.98 521.794 968.831 629.759 656.295 628.499Z" fill="url(#paint0_linear_428_279)"/>
<path opacity="0.4" d="M656.157 581.421C343.621 580.161 91.0522 470.153 92.0285 335.712C93.0048 201.27 347.157 93.3053 659.693 94.5652C972.229 95.8251 1224.8 205.833 1223.82 340.274C1222.85 474.716 968.693 582.681 656.157 581.421Z" fill="url(#paint1_linear_428_279)"/>
<path d="M656.145 534.344C343.609 533.084 91.04 423.076 92.0163 288.635C92.9926 154.193 347.145 46.2282 659.681 47.4881C972.217 48.7479 1224.79 158.756 1223.81 293.197C1222.83 427.639 968.681 535.604 656.145 534.344Z" fill="url(#paint2_linear_428_279)"/>
<g opacity="0.1">
<g style="mix-blend-mode:multiply" opacity="0.02">
<path d="M729.23 403.236C773.941 398.152 816.176 388.171 851.156 373.106C886.137 358.041 909.516 339.907 921.319 320.68C945.305 281.624 921.471 238.143 849.943 207.372C778.415 176.602 677.391 166.396 586.579 176.715C541.868 181.781 499.659 191.78 464.653 206.845C429.647 221.91 406.293 240.045 394.49 259.271C370.529 298.346 394.338 341.809 465.866 372.579C537.394 403.349 638.417 413.537 729.23 403.236ZM109.995 226.11C134.537 186.112 183.292 148.336 255.958 117.02C328.623 85.7038 416.555 64.8011 509.541 54.2368C698.445 32.788 908.657 54.1049 1057.45 118.112C1206.24 182.12 1255.81 272.529 1205.91 353.785C1181.37 393.802 1132.62 431.577 1059.95 462.875C987.287 494.172 899.355 515.113 806.369 525.658C617.465 547.126 407.254 525.79 258.46 461.801C109.667 397.813 60.0524 307.366 109.945 226.034L109.995 226.11Z" fill="#FCFAFB"/>
</g>
<g style="mix-blend-mode:multiply" opacity="0.04">
<path d="M729.23 402.314C773.941 397.229 816.176 387.249 851.156 372.184C886.137 357.119 909.516 338.984 921.319 319.758C945.305 280.702 921.471 237.22 849.943 206.45C778.415 175.68 677.391 165.473 586.579 175.793C541.868 180.858 499.659 190.858 464.653 205.923C429.647 220.988 406.293 239.122 394.49 258.349C370.529 297.424 394.338 340.886 465.866 371.656C537.394 402.427 638.417 412.614 729.23 402.314ZM109.995 225.187C134.537 185.189 183.292 147.414 255.958 116.098C328.623 84.7813 416.555 63.8786 509.541 53.3143C698.445 31.8655 908.657 53.1824 1057.45 117.19C1206.24 181.197 1255.81 271.606 1205.91 352.863C1181.37 392.879 1132.62 430.655 1059.95 461.952C987.287 493.25 899.355 514.19 806.369 524.736C617.465 546.203 407.254 524.868 258.46 460.879C109.667 396.89 60.0524 306.444 109.945 225.187H109.995Z" fill="#F8F6F6"/>
</g>
<g style="mix-blend-mode:multiply" opacity="0.06">
<path d="M729.23 401.391C773.941 396.306 816.176 386.326 851.156 371.261C886.137 356.196 909.516 338.061 921.319 318.835C945.305 279.779 921.471 236.297 849.943 205.527C778.415 174.757 677.391 164.55 586.579 174.87C541.868 179.935 499.659 189.935 464.653 205C429.647 220.065 406.293 238.199 394.49 257.426C370.529 296.501 394.338 339.963 465.866 370.734C537.394 401.504 638.417 411.692 729.23 401.391ZM109.995 224.264C134.537 184.267 183.292 146.491 255.958 115.175C328.623 83.8583 416.555 62.9556 509.541 52.3913C698.445 30.9425 908.657 52.2595 1057.45 116.267C1206.24 180.274 1255.81 270.683 1205.91 351.94C1181.37 391.956 1132.62 429.732 1059.95 461.029C987.287 492.327 899.355 513.248 806.369 523.813C617.465 545.28 407.254 523.945 258.46 459.956C109.667 395.967 60.0524 305.521 109.945 224.264H109.995Z" fill="#F5F1F2"/>
</g>
<g style="mix-blend-mode:multiply" opacity="0.08">
<path d="M729.23 400.468C773.941 395.383 816.176 385.403 851.156 370.338C886.137 355.273 909.516 337.138 921.319 317.912C945.305 278.856 921.471 235.374 849.943 204.604C778.415 173.834 677.391 163.627 586.579 173.947C541.868 179.012 499.659 189.012 464.653 204.077C429.647 219.142 406.293 237.276 394.49 256.503C370.529 295.578 394.338 339.04 465.866 369.811C537.394 400.581 638.417 410.769 729.23 400.468ZM109.995 223.341C134.537 183.344 183.292 145.568 255.958 114.252C328.623 82.9353 416.555 62.0327 509.541 51.4683C698.445 30.0195 908.657 51.3365 1057.45 115.344C1206.24 179.351 1255.81 269.76 1205.91 351.017C1181.37 391.015 1132.62 428.809 1059.95 460.106C987.287 491.404 899.355 512.326 806.369 522.89C617.465 544.357 407.254 523.022 258.46 459.033C109.667 395.044 60.0524 304.598 109.945 223.341H109.995Z" fill="#F1EDEE"/>
</g>
<g style="mix-blend-mode:multiply" opacity="0.1">
<path d="M729.23 399.545C773.941 394.461 816.176 384.48 851.156 369.415C886.137 354.35 909.516 336.216 921.319 316.989C945.305 277.933 921.471 234.452 849.943 203.682C778.415 172.911 677.391 162.705 586.579 173.024C541.868 178.09 499.659 188.089 464.653 203.154C429.647 218.219 406.293 236.354 394.49 255.581C370.529 294.655 394.338 338.118 465.866 368.888C537.394 399.658 638.417 409.846 729.23 399.545ZM109.995 222.419C134.537 182.421 183.292 144.646 255.958 113.329C328.623 82.0129 416.555 61.1102 509.541 50.5459C698.445 29.0971 908.657 50.4141 1057.45 114.403C1206.24 178.391 1255.81 268.819 1205.91 350.095C1181.37 390.092 1132.62 427.886 1059.95 459.184C987.287 490.481 899.355 511.403 806.369 521.967C617.465 543.435 407.254 522.099 258.46 458.111C109.667 394.122 60.0524 303.676 109.945 222.419H109.995Z" fill="#EEE8E9"/>
</g>
<g style="mix-blend-mode:multiply" opacity="0.12">
<path d="M729.23 398.622C773.941 393.538 816.176 383.557 851.156 368.492C886.137 353.427 909.516 335.293 921.319 316.066C945.305 277.01 921.471 233.529 849.943 202.759C778.415 171.988 677.391 161.782 586.579 172.101C541.868 177.167 499.659 187.166 464.653 202.231C429.647 217.296 406.293 235.431 394.49 254.658C370.529 293.732 394.338 337.195 465.866 367.965C537.394 398.735 638.417 408.923 729.23 398.622ZM109.995 221.496C134.537 181.498 183.292 143.723 255.958 112.406C328.623 81.0899 416.555 60.1873 509.541 49.6229C698.445 28.1741 908.657 49.4911 1057.45 113.48C1206.24 177.468 1255.81 267.896 1205.91 349.172C1181.37 389.169 1132.62 426.963 1059.95 458.261C987.287 489.559 899.355 510.48 806.369 521.044C617.465 542.512 407.254 521.176 258.46 457.188C109.667 393.199 60.0524 302.753 109.945 221.496H109.995Z" fill="#EAE4E5"/>
</g>
<g style="mix-blend-mode:multiply" opacity="0.14">
<path d="M729.23 397.7C773.941 392.615 816.176 382.635 851.156 367.57C886.137 352.505 909.516 334.37 921.319 315.144C945.305 276.088 921.471 232.606 849.943 201.836C778.415 171.066 677.391 160.859 586.579 171.179C541.868 176.244 499.659 186.244 464.653 201.309C429.647 216.374 406.293 234.508 394.49 253.735C370.529 292.81 394.338 336.272 465.866 367.043C537.394 397.813 638.417 408.001 729.23 397.7ZM109.995 220.573C134.537 180.576 183.292 142.8 255.958 111.484C328.623 80.1673 416.555 59.2646 509.541 48.7003C698.445 27.2515 908.657 48.5685 1057.45 112.557C1206.24 176.546 1255.81 266.973 1205.91 348.249C1181.37 388.247 1132.62 426.041 1059.95 457.338C987.287 488.636 899.355 509.557 806.369 520.122C617.465 541.589 407.254 520.254 258.46 456.265C109.667 392.276 60.0524 301.83 109.945 220.573H109.995Z" fill="#E7DFE0"/>
</g>
<g style="mix-blend-mode:multiply" opacity="0.16">
<path d="M729.23 396.777C773.941 391.693 816.176 381.712 851.156 366.647C886.137 351.582 909.516 333.448 921.319 314.221C945.305 275.146 921.471 231.684 849.943 200.913C778.415 170.143 677.391 159.937 586.579 170.256C541.868 175.322 499.659 185.321 464.653 200.386C429.647 215.451 406.293 233.585 394.49 252.812C370.529 291.887 394.338 335.35 465.866 366.12C537.394 396.89 638.417 407.078 729.23 396.777ZM109.995 219.65C134.537 179.653 183.292 141.877 255.958 110.561C328.623 79.2446 416.555 58.3419 509.541 47.7776C698.445 26.3288 908.657 47.6458 1057.45 111.634C1206.24 175.623 1255.81 266.051 1205.91 347.326C1181.37 387.324 1132.62 425.099 1059.95 456.416C987.287 487.732 899.355 508.635 806.369 519.199C617.465 540.667 407.254 519.331 258.46 455.342C109.667 391.354 60.0524 300.907 109.945 219.65H109.995Z" fill="#E3DBDC"/>
</g>
<g style="mix-blend-mode:multiply" opacity="0.18">
<path d="M729.23 395.854C773.941 390.77 816.176 380.789 851.156 365.724C886.137 350.659 909.516 332.525 921.319 313.298C945.305 274.223 921.471 230.761 849.943 199.991C778.415 169.22 677.391 159.014 586.579 169.333C541.868 174.399 499.659 184.398 464.653 199.463C429.647 214.528 406.293 232.663 394.49 251.89C370.529 290.964 394.338 334.427 465.866 365.197C537.394 395.967 638.417 406.155 729.23 395.854ZM109.995 218.728C134.537 178.73 183.292 140.955 255.958 109.638C328.623 78.322 416.555 57.4193 509.541 46.855C698.445 25.3874 908.657 46.7232 1057.45 110.712C1206.24 174.7 1255.81 265.128 1205.91 346.404C1181.37 386.401 1132.62 424.177 1059.95 455.493C987.287 486.809 899.355 507.712 806.369 518.276C617.465 539.744 407.254 518.408 258.46 454.42C109.667 390.431 60.0524 299.985 109.945 218.728H109.995Z" fill="#E0D6D8"/>
</g>
<g style="mix-blend-mode:multiply" opacity="0.2">
<path d="M729.23 394.932C773.941 389.847 816.176 379.867 851.156 364.802C886.137 349.737 909.516 331.602 921.319 312.376C945.305 273.301 921.471 229.838 849.943 199.068C778.415 168.298 677.391 158.091 586.579 168.392C541.868 173.476 499.659 183.457 464.653 198.522C429.647 213.587 406.293 231.721 394.49 250.948C370.529 290.023 394.338 333.485 465.866 364.256C537.394 395.026 638.417 405.232 729.23 394.932ZM109.995 217.805C134.537 177.808 183.292 140.032 255.958 108.716C328.623 77.3993 416.555 56.4966 509.541 45.9323C698.445 24.4646 908.657 45.8005 1057.45 109.789C1206.24 173.778 1255.81 264.205 1205.91 345.481C1181.37 385.478 1132.62 423.254 1059.95 454.57C987.287 485.887 899.355 506.789 806.369 517.354C617.465 538.821 407.254 517.486 258.46 453.497C109.667 389.508 60.0524 299.062 109.945 217.805H109.995Z" fill="#DCD2D3"/>
</g>
<g style="mix-blend-mode:multiply" opacity="0.22">
<path d="M729.23 394.009C773.941 388.924 816.176 378.944 851.156 363.879C886.137 348.814 909.516 330.679 921.319 311.453C945.305 272.378 921.471 228.915 849.943 198.145C778.415 167.375 677.391 157.168 586.579 167.469C541.868 172.553 499.659 182.534 464.653 197.599C429.647 212.664 406.293 230.798 394.49 250.025C370.529 289.1 394.338 332.562 465.866 363.333C537.394 394.103 638.417 404.31 729.23 394.009ZM109.995 216.882C134.537 176.885 183.292 139.109 255.958 107.793C328.623 76.4763 416.555 55.5736 509.541 45.0093C698.445 23.5417 908.657 44.8775 1057.45 108.866C1206.24 172.855 1255.81 263.282 1205.91 344.558C1181.37 384.556 1132.62 422.331 1059.95 453.647C987.287 484.964 899.355 505.866 806.369 516.431C617.465 537.898 407.254 516.563 258.46 452.574C109.667 388.585 60.0524 298.139 109.945 216.882H109.995Z" fill="#D9CDCF"/>
</g>
<g style="mix-blend-mode:multiply" opacity="0.24">
<path d="M729.23 393.067C773.941 388.002 816.176 378.002 851.156 362.937C886.137 347.872 909.516 329.738 921.319 310.511C945.305 271.436 921.471 227.974 849.943 197.204C778.415 166.433 677.391 156.227 586.579 166.527C541.868 171.612 499.659 181.592 464.653 196.657C429.647 211.722 406.293 229.857 394.49 249.084C370.529 288.158 394.338 331.621 465.866 362.391C537.394 393.161 638.417 403.387 729.23 393.067ZM109.995 216.054C134.537 176.056 183.292 138.281 255.958 106.964C328.623 75.6478 416.555 54.7451 509.541 44.1808C698.445 22.7132 908.657 44.049 1057.45 108.038C1206.24 172.026 1255.81 262.454 1205.91 343.729C1181.37 383.727 1132.62 421.503 1059.95 452.819C987.287 484.135 899.355 505.038 806.369 515.602C617.465 537.051 407.254 515.734 258.46 451.745C109.667 387.757 60.0524 297.216 109.945 215.959L109.995 216.054Z" fill="#D6C9CB"/>
</g>
<g style="mix-blend-mode:multiply" opacity="0.25">
<path d="M729.23 392.145C773.941 387.079 816.176 377.08 851.156 362.015C886.137 346.95 909.516 328.815 921.319 309.588C945.305 270.514 921.471 227.051 849.943 196.281C778.415 165.511 677.391 155.304 586.579 165.605C541.868 170.689 499.659 180.67 464.653 195.735C429.647 210.8 406.293 228.934 394.49 248.161C370.529 287.217 394.338 330.698 465.866 361.469C537.394 392.239 638.417 402.464 729.23 392.145ZM109.995 215.131C134.537 175.133 183.292 137.358 255.958 106.041C328.623 74.7251 416.555 53.8224 509.541 43.2581C698.445 21.7904 908.657 43.1263 1057.45 107.115C1206.24 171.103 1255.81 261.531 1205.91 342.807C1181.37 382.804 1132.62 420.58 1059.95 451.896C987.287 483.212 899.355 504.115 806.369 514.68C617.465 536.128 407.254 514.811 258.46 450.823C109.667 386.834 60.0524 296.294 109.945 215.037L109.995 215.131Z" fill="#D2C4C6"/>
</g>
<g style="mix-blend-mode:multiply" opacity="0.27">
<path d="M729.231 391.222C773.942 386.156 816.177 376.157 851.157 361.092C886.138 346.027 909.517 327.892 921.32 308.666C945.306 269.591 921.472 226.128 849.944 195.358C778.416 164.588 677.392 154.381 586.58 164.682C541.868 169.766 499.659 179.747 464.654 194.812C429.648 209.877 406.294 228.012 394.49 247.238C370.53 286.294 394.339 329.776 465.867 360.546C537.395 391.316 638.418 401.541 729.231 391.222ZM109.996 214.114C134.538 174.116 183.293 136.322 255.959 105.025C328.624 73.7271 416.505 52.7867 509.491 42.2412C698.396 20.7736 908.607 42.1094 1057.4 106.098C1206.19 170.087 1255.76 260.514 1205.86 341.79C1181.32 381.787 1132.57 419.563 1059.9 450.879C987.237 482.196 899.306 503.098 806.319 513.663C617.415 535.111 407.204 513.794 258.41 449.806C109.617 385.817 60.0531 295.371 109.946 214.114H109.996Z" fill="#CFC0C2"/>
</g>
<g style="mix-blend-mode:multiply" opacity="0.29">
<path d="M729.23 390.299C773.941 385.234 816.176 375.234 851.156 360.169C886.137 345.104 909.516 326.97 921.319 307.743C945.305 268.668 921.471 225.206 849.943 194.435C778.415 163.665 677.391 153.459 586.579 163.759C541.868 168.844 499.659 178.824 464.653 193.889C429.647 208.954 406.293 227.089 394.49 246.315C370.529 285.371 394.338 328.853 465.866 359.623C537.394 390.393 638.417 400.619 729.23 390.299ZM109.995 213.191C134.537 173.194 183.292 135.399 255.958 104.102C328.623 72.8043 416.555 51.8828 509.541 41.3185C698.445 19.8509 908.657 41.1867 1057.45 105.175C1206.24 169.164 1255.81 259.591 1205.91 340.867C1181.37 380.865 1132.62 418.64 1059.95 449.957C987.287 481.273 899.355 502.176 806.369 512.74C617.465 534.189 407.254 512.872 258.46 448.883C109.667 384.895 60.0524 294.448 109.945 213.191H109.995Z" fill="#CBBBBD"/>
</g>
<g style="mix-blend-mode:multiply" opacity="0.31">
<path d="M729.23 389.376C773.941 384.311 816.176 374.311 851.156 359.246C886.137 344.181 909.516 326.047 921.319 306.82C945.305 267.745 921.471 224.283 849.943 193.513C778.415 162.742 677.391 152.536 586.579 162.837C541.868 167.921 499.659 177.902 464.653 192.967C429.647 208.032 406.293 226.166 394.49 245.393C370.529 284.449 394.338 327.93 465.866 358.7C537.394 389.471 638.417 399.696 729.23 389.376ZM109.995 212.269C134.537 172.271 183.292 134.477 255.958 103.179C328.623 71.8816 416.555 50.9601 509.541 40.3958C698.445 18.9281 908.657 40.264 1057.45 104.253C1206.24 168.241 1255.81 258.669 1205.91 339.944C1181.37 379.942 1132.62 417.718 1059.95 449.034C987.287 480.35 899.355 501.253 806.369 511.817C617.465 533.266 407.254 511.949 258.46 447.942C109.667 383.934 60.0524 293.525 109.945 212.269H109.995Z" fill="#C8B6B9"/>
</g>
<g style="mix-blend-mode:multiply" opacity="0.33">
<path d="M729.23 388.454C773.941 383.388 816.176 373.389 851.156 358.324C886.137 343.259 909.516 325.124 921.319 305.898C945.305 266.823 921.471 223.36 849.943 192.59C778.415 161.82 677.391 151.613 586.579 161.914C541.868 166.998 499.659 176.979 464.653 192.044C429.647 207.109 406.293 225.243 394.49 244.47C370.529 283.526 394.338 327.007 465.866 357.778C537.394 388.548 638.417 398.773 729.23 388.454ZM109.995 211.346C134.537 171.348 183.292 133.554 255.958 102.256C328.623 70.9589 416.555 50.0374 509.541 39.473C698.445 18.0054 908.657 39.3412 1057.45 103.33C1206.24 167.318 1255.81 257.746 1205.91 339.022C1181.37 379.019 1132.62 416.795 1059.95 448.111C987.287 479.427 899.355 500.33 806.369 510.894C617.465 532.343 407.254 511.026 258.46 447.019C109.667 383.012 60.0524 292.603 109.945 211.346H109.995Z" fill="#C4B2B5"/>
</g>
<g style="mix-blend-mode:multiply" opacity="0.35">
<path d="M729.23 387.531C773.941 382.466 816.176 372.466 851.156 357.401C886.137 342.336 909.516 324.202 921.319 304.975C945.305 265.9 921.471 222.438 849.943 191.667C778.415 160.897 677.391 150.691 586.579 160.991C541.868 166.076 499.659 176.056 464.653 191.121C429.647 206.186 406.293 224.321 394.49 243.548C370.529 282.604 394.338 326.085 465.866 356.855C537.394 387.625 638.417 397.851 729.23 387.531ZM109.995 210.518C134.537 170.501 183.292 132.726 255.958 101.428C328.623 70.1306 416.555 49.1903 509.541 38.6448C698.445 17.1772 908.657 38.513 1057.45 102.502C1206.24 166.49 1255.81 256.918 1205.91 338.193C1181.37 378.191 1132.62 415.966 1059.95 447.283C987.287 478.599 899.355 499.502 806.369 510.066C617.465 531.515 407.254 510.198 258.46 446.191C109.667 382.183 60.0524 291.68 109.945 210.423L109.995 210.518Z" fill="#C1ADB0"/>
</g>
<g style="mix-blend-mode:multiply" opacity="0.37">
<path d="M729.23 386.608C773.941 381.543 816.176 371.543 851.156 356.478C886.137 341.413 909.516 323.279 921.319 304.052C945.305 264.977 921.471 221.515 849.943 190.745C778.415 159.974 677.391 149.768 586.579 160.068C541.868 165.153 499.659 175.133 464.653 190.198C429.647 205.263 406.293 223.398 394.49 242.625C370.529 281.681 394.338 325.162 465.866 355.932C537.394 386.703 638.417 396.928 729.23 386.608ZM109.995 209.595C134.537 169.578 183.292 131.803 255.958 100.505C328.623 69.2077 416.555 48.2673 509.541 37.7218C698.445 16.2542 908.657 37.59 1057.45 101.579C1206.24 165.567 1255.81 255.995 1205.91 337.27C1181.37 377.268 1132.62 415.044 1059.95 446.36C987.287 477.676 899.355 498.579 806.369 509.143C617.465 530.592 407.254 509.275 258.46 445.268C109.667 381.26 60.0524 290.757 109.945 209.5L109.995 209.595Z" fill="#BDA9AC"/>
</g>
<g style="mix-blend-mode:multiply" opacity="0.39">
<path d="M729.23 385.686C773.941 380.62 816.176 370.621 851.156 355.556C886.137 340.491 909.516 322.356 921.319 303.129C945.305 264.055 921.471 220.592 849.943 189.822C778.415 159.052 677.391 148.845 586.579 159.146C541.868 164.23 499.659 174.211 464.653 189.276C429.647 204.341 406.293 222.475 394.49 241.702C370.529 280.758 394.338 324.239 465.866 355.01C537.394 385.78 638.417 396.005 729.23 385.686ZM109.995 208.559C134.537 168.561 183.292 130.786 255.958 99.4883C328.623 68.1908 416.555 47.2505 509.541 36.705C698.445 15.2374 908.657 36.5731 1057.45 100.562C1206.24 164.55 1255.81 254.978 1205.91 336.254C1181.37 376.251 1132.62 414.027 1059.95 445.343C987.287 476.659 899.355 497.562 806.369 508.126C617.465 529.575 407.254 508.258 258.46 444.251C109.667 380.243 60.0524 289.835 109.945 208.559H109.995Z" fill="#BAA4A8"/>
</g>
<g style="mix-blend-mode:multiply" opacity="0.41">
<path d="M729.23 384.763C773.941 379.697 816.176 369.698 851.156 354.633C886.137 339.568 909.516 321.433 921.319 302.207C945.305 263.132 921.471 219.669 849.943 188.899C778.415 158.129 677.391 147.922 586.579 158.223C541.868 163.307 499.659 173.288 464.653 188.353C429.647 203.418 406.293 221.571 394.49 240.798C370.529 279.854 394.338 323.335 465.866 354.106C537.394 384.876 638.417 395.082 729.23 384.763ZM109.995 207.636C134.537 167.639 183.292 129.863 255.958 98.5656C328.623 67.2681 416.555 46.3277 509.541 35.7822C698.445 14.3146 908.657 35.6504 1057.45 99.639C1206.24 163.628 1255.81 254.055 1205.91 335.331C1181.37 375.328 1132.62 413.104 1059.95 444.42C987.287 475.737 899.355 496.639 806.369 507.204C617.465 528.652 407.254 507.336 258.46 443.328C109.667 379.321 60.0524 288.912 109.945 207.636H109.995Z" fill="#B7A0A3"/>
</g>
<g style="mix-blend-mode:multiply" opacity="0.43">
<path d="M729.23 383.84C773.941 378.775 816.176 368.775 851.156 353.71C886.137 338.645 909.516 320.511 921.319 301.284C945.305 262.209 921.471 218.747 849.943 187.976C778.415 157.206 677.391 147 586.579 157.3C541.868 162.385 499.659 172.365 464.653 187.43C429.647 202.495 406.293 220.649 394.49 239.875C370.529 278.931 394.338 322.413 465.866 353.183C537.394 383.953 638.417 394.16 729.23 383.84ZM109.995 206.713C134.537 166.716 183.292 128.94 255.958 97.6429C328.623 66.3454 416.555 45.405 509.541 34.8595C698.445 13.3919 908.657 34.7088 1057.45 98.7163C1206.24 162.724 1255.81 253.132 1205.91 334.408C1181.37 374.406 1132.62 412.181 1059.95 443.498C987.287 474.814 899.355 495.717 806.369 506.281C617.465 527.73 407.254 506.413 258.46 442.405C109.667 378.398 60.0524 287.989 109.945 206.713H109.995Z" fill="#B39B9F"/>
</g>
<g style="mix-blend-mode:multiply" opacity="0.45">
<path d="M729.23 382.917C773.941 377.852 816.176 367.852 851.156 352.787C886.137 337.722 909.516 319.588 921.319 300.342C945.305 261.286 921.471 217.824 849.943 187.054C778.415 156.283 677.391 146.077 586.579 156.377C541.868 161.462 499.659 171.442 464.653 186.507C429.647 201.572 406.293 219.726 394.49 238.952C370.529 278.008 394.338 321.49 465.866 352.241C537.394 382.993 638.417 393.237 729.23 382.917ZM109.995 205.791C134.537 165.793 183.292 128.018 255.958 96.72C328.623 65.4225 416.555 44.4821 509.541 33.9366C698.445 12.469 908.657 33.786 1057.45 97.7934C1206.24 161.801 1255.81 252.21 1205.91 333.485C1181.37 373.483 1132.62 411.258 1059.95 442.575C987.287 473.891 899.355 494.794 806.369 505.358C617.465 526.807 407.254 505.49 258.46 441.483C109.667 377.475 60.0524 287.066 109.945 205.791H109.995Z" fill="#B0979A"/>
</g>
<g style="mix-blend-mode:multiply" opacity="0.47">
<path d="M729.23 381.995C773.941 376.929 816.176 366.93 851.156 351.865C886.137 336.8 909.516 318.665 921.319 299.42C945.305 260.364 921.471 216.901 849.943 186.131C778.415 155.361 677.391 145.154 586.579 155.455C541.868 160.539 499.659 170.52 464.653 185.585C429.647 200.65 406.293 218.803 394.49 238.03C370.529 277.086 394.338 320.567 465.866 351.319C537.394 382.07 638.417 392.314 729.23 381.995ZM109.995 204.868C134.537 164.871 183.292 127.095 255.958 95.7975C328.623 64.5 416.555 43.5597 509.541 33.0142C698.445 11.5465 908.657 32.8635 1057.45 96.8709C1206.24 160.878 1255.81 251.287 1205.91 332.563C1181.37 372.56 1132.62 410.336 1059.95 441.652C987.287 472.969 899.355 493.871 806.369 504.436C617.465 525.884 407.254 504.568 258.46 440.56C109.667 376.553 60.0524 286.144 109.945 204.868H109.995Z" fill="#AC9296"/>
</g>
<g style="mix-blend-mode:multiply" opacity="0.49">
<path d="M729.23 381.072C773.941 376.007 816.176 366.007 851.156 350.942C886.137 335.877 909.516 317.724 921.319 298.497C945.305 259.441 921.471 215.979 849.943 185.208C778.415 154.438 677.391 144.232 586.579 154.532C541.868 159.617 499.659 169.597 464.653 184.662C429.647 199.727 406.293 217.881 394.49 237.107C370.529 276.163 394.338 319.645 465.866 350.396C537.394 381.147 638.417 391.392 729.23 381.072ZM109.995 203.945C134.537 163.948 183.292 126.172 255.958 94.8748C328.623 63.5773 416.555 42.6369 509.541 32.0914C698.445 10.6238 908.657 31.9408 1057.45 95.9482C1206.24 159.956 1255.81 250.364 1205.91 331.64C1181.37 371.638 1132.62 409.413 1059.95 440.73C987.287 472.046 899.355 492.949 806.369 503.513C617.465 524.962 407.254 503.645 258.46 439.637C109.667 375.63 60.0524 285.221 109.945 203.945H109.995Z" fill="#A98E92"/>
</g>
<g style="mix-blend-mode:multiply" opacity="0.51">
<path d="M729.23 380.149C773.941 375.083 816.176 365.084 851.156 350.019C886.137 334.954 909.516 316.801 921.319 297.574C945.305 258.518 921.471 215.055 849.943 184.285C778.415 153.515 677.391 143.308 586.579 153.609C541.868 158.693 499.659 168.674 464.653 183.739C429.647 198.804 406.293 216.957 394.49 236.184C370.529 275.24 394.338 318.721 465.866 349.473C537.394 380.224 638.417 390.468 729.23 380.149ZM109.995 203.022C134.537 163.025 183.292 125.249 255.958 93.9516C328.623 62.6541 416.555 41.7137 509.541 31.1682C698.445 9.70058 908.657 31.0175 1057.45 95.025C1206.24 159.032 1255.81 249.441 1205.91 330.717C1181.37 370.714 1132.62 408.49 1059.95 439.806C987.287 471.123 899.355 492.025 806.369 502.59C617.465 524.039 407.254 502.722 258.46 438.714C109.667 374.707 60.0524 284.279 109.945 203.022H109.995Z" fill="#A5898D"/>
</g>
<g style="mix-blend-mode:multiply" opacity="0.53">
<path d="M729.23 379.226C773.941 374.161 816.176 364.161 851.156 349.096C886.137 334.031 909.516 315.878 921.319 296.651C945.305 257.595 921.471 214.133 849.943 183.362C778.415 152.592 677.391 142.386 586.579 152.686C541.868 157.771 499.659 167.751 464.653 182.816C429.647 197.881 406.293 216.035 394.49 235.261C370.529 274.317 394.338 317.799 465.866 348.55C537.394 379.302 638.417 389.546 729.23 379.226ZM109.995 202.1C134.537 162.102 183.292 124.326 255.958 93.0289C328.623 61.7314 416.555 40.7911 509.541 30.2267C698.445 8.77796 908.657 30.0949 1057.45 94.1023C1206.24 158.11 1255.81 248.519 1205.91 329.794C1181.37 369.792 1132.62 407.567 1059.95 438.884C987.287 470.2 899.355 491.103 806.369 501.667C617.465 523.116 407.254 501.799 258.46 437.791C109.667 373.784 60.0524 283.356 109.945 202.1H109.995Z" fill="#A28589"/>
</g>
<g style="mix-blend-mode:multiply" opacity="0.55">
<path d="M729.23 378.304C773.941 373.238 816.176 363.239 851.156 348.174C886.137 333.109 909.516 314.955 921.319 295.729C945.305 256.673 921.471 213.21 849.943 182.44C778.415 151.67 677.391 141.444 586.579 151.764C541.868 156.848 499.659 166.829 464.653 181.894C429.647 196.959 406.293 215.112 394.49 234.339C370.529 273.395 394.338 316.876 465.866 347.628C537.394 378.379 638.417 388.623 729.23 378.304ZM109.995 201.177C134.537 161.18 183.292 123.404 255.958 92.1065C328.623 60.8089 416.555 39.8686 509.541 29.3043C698.445 7.85547 908.657 29.1724 1057.45 93.1798C1206.24 157.187 1255.81 247.596 1205.91 328.872C1181.37 368.869 1132.62 406.645 1059.95 437.961C987.287 469.278 899.355 490.18 806.369 500.745C617.465 522.193 407.254 500.876 258.46 436.869C109.667 372.862 60.0524 282.528 109.945 201.177H109.995Z" fill="#9E8085"/>
</g>
<g style="mix-blend-mode:multiply" opacity="0.57">
<path d="M729.23 377.381C773.941 372.315 816.176 362.316 851.156 347.251C886.137 332.186 909.516 314.033 921.319 294.806C945.305 255.75 921.471 212.287 849.943 181.517C778.415 150.747 677.391 140.522 586.579 150.841C541.868 155.926 499.659 165.906 464.653 180.971C429.647 196.036 406.293 214.189 394.49 233.416C370.529 272.472 394.338 315.953 465.866 346.705C537.394 377.456 638.417 387.701 729.23 377.381ZM109.995 200.254C134.537 160.257 183.292 122.481 255.958 91.1838C328.623 59.8862 416.555 38.9459 509.541 28.3815C698.445 6.93274 908.657 28.2497 1057.45 92.2571C1206.24 156.265 1255.81 246.673 1205.91 327.949C1181.37 367.947 1132.62 405.722 1059.95 437.038C987.287 468.355 899.355 489.258 806.369 499.822C617.465 521.271 407.254 499.954 258.46 435.946C109.667 371.939 60.0524 281.511 109.945 200.254H109.995Z" fill="#9B7B80"/>
</g>
<g style="mix-blend-mode:multiply" opacity="0.59">
<path d="M729.23 376.458C773.941 371.393 816.176 361.393 851.156 346.328C886.137 331.263 909.516 313.11 921.319 293.883C945.305 254.827 921.471 211.365 849.943 180.595C778.415 149.824 677.391 139.599 586.579 149.919C541.868 155.003 499.659 164.984 464.653 180.049C429.647 195.114 406.293 213.267 394.49 232.494C370.529 271.55 394.338 315.031 465.866 345.782C537.394 376.534 638.417 386.778 729.23 376.458ZM109.995 199.332C134.537 159.334 183.292 121.559 255.958 90.2611C328.623 58.9636 416.555 38.0233 509.541 27.4589C698.445 6.01014 908.657 27.3271 1057.45 91.3345C1206.24 155.342 1255.81 245.751 1205.91 327.026C1181.37 367.024 1132.62 404.799 1059.95 436.116C987.287 467.432 899.355 488.335 806.369 498.899C617.465 520.348 407.254 499.031 258.46 435.024C109.667 371.016 60.0524 280.645 109.945 199.332H109.995Z" fill="#97777C"/>
</g>
<g style="mix-blend-mode:multiply" opacity="0.61">
<path d="M729.23 375.535C773.941 370.47 816.176 360.47 851.156 345.405C886.137 330.34 909.516 312.187 921.319 292.96C945.305 253.904 921.471 210.442 849.943 179.672C778.415 148.901 677.391 138.676 586.579 148.996C541.868 154.08 499.659 164.061 464.653 179.126C429.647 194.191 406.293 212.344 394.49 231.571C370.529 270.627 394.338 314.108 465.866 344.859C537.394 375.611 638.417 385.855 729.23 375.535ZM109.995 198.409C134.537 158.411 183.292 120.636 255.958 89.3382C328.623 58.0406 416.555 37.1003 509.541 26.536C698.445 5.08716 908.657 26.4041 1057.45 90.4115C1206.24 154.419 1255.81 244.828 1205.91 326.103C1181.37 366.101 1132.62 403.876 1059.95 435.193C987.287 466.509 899.355 487.412 806.369 497.976C617.465 519.425 407.254 498.108 258.46 434.101C109.667 370.093 60.0524 279.666 109.945 198.409H109.995Z" fill="#947277"/>
</g>
<g style="mix-blend-mode:multiply" opacity="0.63">
<path d="M729.23 374.613C773.941 369.547 816.176 359.548 851.156 344.483C886.137 329.418 909.516 311.265 921.319 292.038C945.305 252.982 921.471 209.519 849.943 178.749C778.415 147.979 677.391 137.754 586.579 148.073C541.868 153.158 499.659 163.138 464.653 178.203C429.647 193.268 406.293 211.421 394.49 230.648C370.529 269.704 394.338 313.185 465.866 343.937C537.394 374.688 638.417 384.932 729.23 374.613ZM109.995 197.486C134.537 157.489 183.292 119.713 255.958 88.4157C328.623 57.1181 416.555 36.1778 509.541 25.6135C698.445 4.16468 908.657 25.4816 1057.45 89.4891C1206.24 153.496 1255.81 243.905 1205.91 325.181C1181.37 365.178 1132.62 402.954 1059.95 434.27C987.287 465.587 899.355 486.489 806.369 497.054C617.465 518.503 407.254 497.186 258.46 433.178C109.667 369.171 60.0524 278.762 109.945 197.486H109.995Z" fill="#916E73"/>
</g>
<g style="mix-blend-mode:multiply" opacity="0.65">
<path d="M729.23 373.69C773.941 368.606 816.176 358.625 851.156 343.56C886.137 328.495 909.516 310.342 921.319 291.115C945.305 252.059 921.471 208.597 849.943 177.826C778.415 147.056 677.391 136.831 586.579 147.15C541.868 152.235 499.659 162.215 464.653 177.28C429.647 192.345 406.293 210.499 394.49 229.725C370.529 268.781 394.338 312.263 465.866 343.014C537.394 373.766 638.417 384.01 729.23 373.69ZM109.995 196.564C134.537 156.566 183.292 118.79 255.958 87.4929C328.623 56.1954 416.555 35.2551 509.541 24.6907C698.445 3.24195 908.657 24.5589 1057.45 88.5663C1206.24 152.574 1255.81 242.983 1205.91 324.258C1181.37 364.256 1132.62 402.031 1059.95 433.329C987.287 464.626 899.355 485.567 806.369 496.131C617.465 517.58 407.254 496.263 258.46 432.255C109.667 368.248 60.0524 277.82 109.945 196.564H109.995Z" fill="#8D696F"/>
</g>
<g style="mix-blend-mode:multiply" opacity="0.67">
<path d="M729.23 372.767C773.941 367.683 816.176 357.702 851.156 342.637C886.137 327.572 909.516 309.419 921.319 290.192C945.305 251.136 921.471 207.673 849.943 176.903C778.415 146.133 677.391 135.908 586.579 146.227C541.868 151.312 499.659 161.292 464.653 176.357C429.647 191.422 406.293 209.575 394.49 228.802C370.529 267.858 394.338 311.34 465.866 342.091C537.394 372.842 638.417 383.087 729.23 372.767ZM109.995 195.64C134.537 155.643 183.292 117.867 255.958 86.5697C328.623 55.2722 416.555 34.3319 509.541 23.7675C698.445 2.31873 908.657 23.6357 1057.45 87.6431C1206.24 151.651 1255.81 242.059 1205.91 323.335C1181.37 363.333 1132.62 401.108 1059.95 432.406C987.287 463.703 899.355 484.643 806.369 495.208C617.465 516.657 407.254 495.34 258.46 431.332C109.667 367.325 60.0524 276.878 109.945 195.64H109.995Z" fill="#8A656A"/>
</g>
<g style="mix-blend-mode:multiply" opacity="0.69">
<path d="M729.23 371.844C773.941 366.76 816.176 356.779 851.156 341.714C886.137 326.649 909.516 308.496 921.319 289.269C945.305 250.213 921.471 206.751 849.943 175.981C778.415 145.21 677.391 134.985 586.579 145.305C541.868 150.389 499.659 160.37 464.653 175.435C429.647 190.5 406.293 208.653 394.49 227.88C370.529 266.936 394.338 310.398 465.866 341.168C537.394 371.939 638.417 382.164 729.23 371.844ZM109.995 194.718C134.537 154.72 183.292 116.945 255.958 85.6471C328.623 54.3496 416.555 33.4092 509.541 22.8449C698.445 1.39612 908.657 22.7131 1057.45 86.7205C1206.24 150.728 1255.81 241.137 1205.91 322.412C1181.37 362.41 1132.62 400.185 1059.95 431.483C987.287 462.781 899.355 483.721 806.369 494.285C617.465 515.734 407.254 494.417 258.46 430.41C109.667 366.402 60.0524 275.975 109.945 194.718H109.995Z" fill="#866066"/>
</g>
<g style="mix-blend-mode:multiply" opacity="0.71">
<path d="M729.23 370.922C773.941 365.837 816.176 355.857 851.156 340.792C886.137 325.727 909.516 307.573 921.319 288.347C945.305 249.291 921.471 205.828 849.943 175.058C778.415 144.288 677.391 134.062 586.579 144.382C541.868 149.466 499.659 159.447 464.653 174.512C429.647 189.577 406.293 207.73 394.49 226.957C370.529 266.013 394.338 309.475 465.866 340.246C537.394 371.016 638.417 381.241 729.23 370.922ZM109.995 193.795C134.537 153.797 183.292 116.022 255.958 84.7244C328.623 53.4269 416.555 32.4865 509.541 21.9222C698.445 0.473393 908.657 21.7904 1057.45 85.7978C1206.24 149.805 1255.81 240.214 1205.91 321.49C1181.37 361.487 1132.62 399.263 1059.95 430.56C987.287 461.858 899.355 482.798 806.369 493.362C617.465 514.811 407.254 493.494 258.46 429.487C109.667 365.479 60.0524 274.995 109.945 193.795H109.995Z" fill="#835C62"/>
</g>
<g style="mix-blend-mode:multiply" opacity="0.73">
<path d="M729.23 369.999C773.941 364.915 816.176 354.934 851.156 339.869C886.137 324.804 909.516 306.651 921.319 287.424C945.305 248.368 921.471 204.887 849.943 174.135C778.415 143.384 677.391 133.14 586.579 143.459C541.868 148.544 499.659 158.524 464.653 173.589C429.647 188.654 406.293 206.808 394.49 226.034C370.529 265.09 394.338 308.553 465.866 339.323C537.394 370.093 638.417 380.319 729.23 369.999ZM109.995 192.872C134.537 152.875 183.292 115.099 255.958 83.8019C328.623 52.5044 416.555 31.564 509.541 20.9997C698.445 -0.449093 908.657 20.8679 1057.45 84.8753C1206.24 148.883 1255.81 239.292 1205.91 320.567C1181.37 360.565 1132.62 398.34 1059.95 429.638C987.287 460.935 899.355 481.876 806.369 492.44C617.465 513.889 407.254 492.572 258.46 428.564C109.667 364.557 60.0524 274.129 109.945 192.872H109.995Z" fill="#7F575D"/>
</g>
<g style="mix-blend-mode:multiply" opacity="0.75">
<path d="M729.23 369.152C773.941 364.067 816.176 354.087 851.156 339.022C886.137 323.957 909.516 305.803 921.319 286.577C945.305 247.521 921.471 204.039 849.943 173.288C778.415 142.536 677.391 132.292 586.579 142.612C541.868 147.696 499.659 157.677 464.653 172.742C429.647 187.807 406.293 205.96 394.49 225.187C370.529 264.243 394.338 307.705 465.866 338.476C537.394 369.246 638.417 379.396 729.23 369.152ZM109.995 192.025C134.537 152.027 183.292 114.252 255.958 82.9544C328.623 51.6568 416.555 30.7165 509.541 20.1522C698.445 -1.29663 908.657 20.0203 1057.45 84.0277C1206.24 148.035 1255.81 238.444 1205.91 319.72C1181.37 359.717 1132.62 397.493 1059.95 428.79C987.287 460.088 899.355 481.028 806.369 491.592C617.465 513.041 407.254 491.724 258.46 427.717C109.667 363.709 60.0524 273.206 109.945 191.95L109.995 192.025Z" fill="#7C5359"/>
</g>
<g style="mix-blend-mode:multiply" opacity="0.76">
<path d="M729.23 368.154C773.941 363.069 816.176 353.089 851.156 338.024C886.137 322.959 909.516 304.805 921.319 285.579C945.305 246.523 921.471 203.041 849.943 172.29C778.415 141.538 677.391 131.294 586.579 141.614C541.868 146.698 499.659 156.679 464.653 171.744C429.647 186.809 406.293 204.962 394.49 224.189C370.529 263.245 394.338 306.707 465.866 337.477C537.394 368.248 638.417 378.567 729.23 368.154ZM109.995 191.027C134.537 151.029 183.292 113.254 255.958 81.9375C328.623 50.6211 416.555 29.7184 509.541 19.1541C698.445 -2.29467 908.657 19.0223 1057.45 83.0297C1206.24 147.037 1255.81 237.446 1205.91 318.722C1181.37 358.719 1132.62 396.495 1059.95 427.792C987.287 459.09 899.355 480.03 806.369 490.594C617.465 512.043 407.254 490.726 258.46 426.719C109.667 362.711 60.0524 272.284 109.945 191.027H109.995Z" fill="#784E54"/>
</g>
<g style="mix-blend-mode:multiply" opacity="0.78">
<path d="M729.23 367.269C773.941 362.184 816.176 352.204 851.156 337.139C886.137 322.074 909.516 303.92 921.319 284.694C945.305 245.638 921.471 202.156 849.943 171.405C778.415 140.653 677.391 130.409 586.579 140.729C541.868 145.794 499.659 155.794 464.653 170.859C429.647 185.924 406.293 204.077 394.49 223.304C370.529 262.36 394.338 305.822 465.866 336.592C537.394 367.363 638.417 377.55 729.23 367.269ZM109.995 190.142C134.537 150.144 183.292 112.369 255.958 81.0525C328.623 49.7361 416.555 28.8334 509.541 18.2691C698.445 -3.17968 908.657 18.1373 1057.45 82.1447C1206.24 146.152 1255.81 236.561 1205.91 317.837C1181.37 357.834 1132.62 395.61 1059.95 426.907C987.287 458.205 899.355 479.145 806.369 489.709C617.465 511.158 407.254 489.841 258.46 425.834C109.667 361.826 60.0524 271.361 109.945 190.104L109.995 190.142Z" fill="#754A50"/>
</g>
<g style="mix-blend-mode:multiply" opacity="0.8">
<path d="M729.23 366.308C773.941 361.224 816.176 351.243 851.156 336.178C886.137 321.113 909.516 302.96 921.319 283.733C945.305 244.677 921.471 201.196 849.943 170.444C778.415 139.693 677.391 129.449 586.579 139.768C541.868 144.834 499.659 154.833 464.653 169.898C429.647 184.963 406.293 203.117 394.49 222.343C370.529 261.399 394.338 304.862 465.866 335.632C537.394 366.402 638.417 376.684 729.23 366.308ZM109.995 189.181C134.537 149.184 183.292 111.408 255.958 80.092C328.623 48.7757 416.555 27.873 509.541 17.3087C698.445 -4.14013 908.657 17.1768 1057.45 81.1842C1206.24 145.192 1255.81 235.6 1205.91 316.876C1181.37 356.874 1132.62 394.649 1059.95 425.947C987.287 457.244 899.355 478.185 806.369 488.749C617.465 510.198 407.254 488.881 258.46 424.873C109.667 360.866 60.0524 270.438 109.945 189.181H109.995Z" fill="#72454C"/>
</g>
<g style="mix-blend-mode:multiply" opacity="0.82">
<path d="M729.23 365.385C773.941 360.301 816.176 350.32 851.156 335.255C886.137 320.19 909.516 302.037 921.319 282.81C945.305 243.754 921.471 200.273 849.943 169.522C778.415 138.77 677.391 128.526 586.579 138.846C541.868 143.911 499.659 153.911 464.653 168.976C429.647 184.041 406.293 202.194 394.49 221.421C370.529 260.477 394.338 303.939 465.866 334.709C537.394 365.48 638.417 375.705 729.23 365.385ZM109.995 188.259C134.537 148.261 183.292 110.486 255.958 79.1693C328.623 47.8529 416.555 26.9503 509.541 16.3859C698.445 -5.06286 908.657 16.2541 1057.45 80.2615C1206.24 144.269 1255.81 234.678 1205.91 315.953C1181.37 355.951 1132.62 393.726 1059.95 425.024C987.287 456.322 899.355 477.262 806.369 487.826C617.465 509.275 407.254 487.958 258.46 423.951C109.667 359.943 60.0524 269.516 109.945 188.259H109.995Z" fill="#6E4147"/>
</g>
<g style="mix-blend-mode:multiply" opacity="0.84">
<path d="M729.23 364.463C773.941 359.378 816.176 349.398 851.156 334.333C886.137 319.268 909.516 301.114 921.319 281.888C945.305 242.832 921.471 199.35 849.943 168.599C778.415 137.847 677.391 127.603 586.579 137.923C541.868 142.988 499.659 152.988 464.653 168.053C429.647 183.118 406.293 201.271 394.49 220.498C370.529 259.554 394.338 303.016 465.866 333.787C537.394 364.557 638.417 374.801 729.23 364.463ZM109.995 187.336C134.537 147.338 183.292 109.563 255.958 78.2466C328.623 46.9302 416.555 26.0275 509.541 15.4632C698.445 -5.9856 908.657 15.3314 1057.45 79.3388C1206.24 143.346 1255.81 233.755 1205.91 315.031C1181.37 355.028 1132.62 392.804 1059.95 424.101C987.287 455.399 899.355 476.339 806.369 486.903C617.465 508.352 407.254 487.035 258.46 423.028C109.667 359.02 60.0524 268.593 109.945 187.336H109.995Z" fill="#6B3C43"/>
</g>
<g style="mix-blend-mode:multiply" opacity="0.86">
<path d="M729.23 363.502C773.941 358.418 816.176 348.437 851.156 333.372C886.137 318.307 909.516 300.154 921.319 280.927C945.305 241.871 921.471 198.39 849.943 167.639C778.415 136.887 677.391 126.643 586.579 136.962C541.868 142.028 499.659 152.027 464.653 167.092C429.647 182.157 406.293 200.311 394.49 219.537C370.529 258.593 394.338 302.056 465.866 332.826C537.394 363.596 638.417 373.841 729.23 363.502ZM109.995 186.376C134.537 146.378 183.292 108.603 255.958 77.2862C328.623 45.9699 416.555 25.0672 509.541 14.5029C698.445 -6.94592 908.657 14.371 1057.45 78.3784C1206.24 142.386 1255.81 232.795 1205.91 314.07C1181.37 354.068 1132.62 391.843 1059.95 423.141C987.287 454.438 899.355 475.379 806.369 485.943C617.465 507.392 407.254 486.075 258.46 422.068C109.667 358.06 60.0524 267.67 109.945 186.489L109.995 186.376Z" fill="#67373F"/>
</g>
<g style="mix-blend-mode:multiply" opacity="0.88">
<path d="M729.23 362.617C773.941 357.533 816.176 347.552 851.156 332.487C886.137 317.422 909.516 299.269 921.319 280.042C945.305 240.986 921.471 197.505 849.943 166.753C778.415 136.002 677.391 125.758 586.579 136.077C541.868 141.143 499.659 151.142 464.653 166.207C429.647 181.272 406.293 199.426 394.49 218.652C370.529 257.708 394.338 301.171 465.866 331.941C537.394 362.711 638.417 372.918 729.23 362.617ZM109.995 185.49C134.537 145.493 183.292 107.717 255.958 76.401C328.623 45.0846 416.555 24.1819 509.541 13.6176C698.445 -7.83117 908.657 13.4858 1057.45 77.4932C1206.24 141.501 1255.81 231.909 1205.91 313.185C1181.37 353.183 1132.62 390.958 1059.95 422.256C987.287 453.553 899.355 474.494 806.369 485.039C617.465 506.507 407.254 485.19 258.46 421.182C109.667 357.175 60.0524 266.747 109.945 185.49H109.995Z" fill="#64333A"/>
</g>
<g style="mix-blend-mode:multiply" opacity="0.9">
<path d="M729.23 361.619C773.941 356.535 816.176 346.554 851.156 331.489C886.137 316.424 909.516 298.271 921.319 279.044C945.305 239.988 921.471 196.507 849.943 165.755C778.415 135.004 677.391 124.76 586.579 135.079C541.868 140.145 499.659 150.144 464.653 165.209C429.647 180.274 406.293 198.427 394.49 217.654C370.529 256.71 394.338 300.173 465.866 330.943C537.394 361.713 638.417 371.995 729.23 361.619ZM109.995 184.492C134.537 144.495 183.292 106.719 255.958 75.4028C328.623 44.0865 416.555 23.1838 509.541 12.6194C698.445 -8.82934 908.657 12.4876 1057.45 76.495C1206.24 140.502 1255.81 230.911 1205.91 312.187C1181.37 352.185 1132.62 389.96 1059.95 421.258C987.287 452.555 899.355 473.495 806.369 484.041C617.465 505.509 407.254 484.192 258.46 420.184C109.667 356.177 60.0524 265.824 109.945 184.605L109.995 184.492Z" fill="#602E36"/>
</g>
<g style="mix-blend-mode:multiply" opacity="0.92">
<path d="M729.23 360.772C773.941 355.688 816.176 345.707 851.156 330.642C886.137 315.577 909.516 297.424 921.319 278.197C945.305 239.141 921.471 195.66 849.943 164.908C778.415 134.157 677.391 123.912 586.579 134.232C541.868 139.298 499.659 149.297 464.653 164.362C429.647 179.427 406.293 197.58 394.49 216.807C370.529 255.863 394.338 299.326 465.866 330.096C537.394 360.866 638.417 371.035 729.23 360.772ZM109.995 183.645C134.537 143.648 183.292 105.872 255.958 74.5558C328.623 43.2394 416.555 22.3367 509.541 11.7724C698.445 -9.67639 908.657 11.6406 1057.45 75.648C1206.24 139.655 1255.81 230.064 1205.91 311.34C1181.37 351.337 1132.62 389.113 1059.95 420.411C987.287 451.708 899.355 472.648 806.369 483.194C617.465 504.662 407.254 483.345 258.46 419.337C109.667 355.33 60.0524 264.902 109.945 183.645H109.995Z" fill="#5D2A32"/>
</g>
<g style="mix-blend-mode:multiply" opacity="0.94">
<path d="M729.23 359.849C773.941 354.765 816.176 344.784 851.156 329.719C886.137 314.654 909.516 296.501 921.319 277.274C945.305 238.218 921.471 194.737 849.943 163.986C778.415 133.234 677.391 122.99 586.579 133.309C541.868 138.375 499.659 148.374 464.653 163.439C429.647 178.504 406.293 196.639 394.49 215.884C370.529 254.94 394.338 298.403 465.866 329.173C537.394 359.943 638.417 370.15 729.23 359.849ZM109.995 182.723C134.537 142.725 183.292 104.95 255.958 73.6332C328.623 42.3168 416.555 21.4141 509.541 10.8498C698.445 -10.599 908.657 10.718 1057.45 74.7254C1206.24 138.733 1255.81 229.142 1205.91 310.417C1181.37 350.415 1132.62 388.19 1059.95 419.488C987.287 450.785 899.355 471.726 806.369 482.271C617.465 503.739 407.254 482.422 258.46 418.415C109.667 354.407 60.0524 263.979 109.945 182.723H109.995Z" fill="#59252D"/>
</g>
<g style="mix-blend-mode:multiply" opacity="0.96">
<path d="M729.23 358.926C773.941 353.842 816.176 343.861 851.156 328.796C886.137 313.731 909.516 295.578 921.319 276.351C945.305 237.295 921.471 193.814 849.943 163.062C778.415 132.311 677.391 122.067 586.579 132.386C541.868 137.452 499.659 147.451 464.653 162.516C429.647 177.581 406.293 195.716 394.49 214.961C370.529 254.017 394.338 297.48 465.866 328.25C537.394 359.02 638.417 369.152 729.23 358.926ZM109.995 181.799C134.537 141.802 183.292 104.026 255.958 72.71C328.623 41.3936 416.555 20.4909 509.541 9.92658C698.445 -11.5222 908.657 9.79475 1057.45 73.8022C1206.24 137.81 1255.81 228.218 1205.91 309.494C1181.37 349.492 1132.62 387.267 1059.95 418.565C987.287 449.862 899.355 470.803 806.369 481.348C617.465 502.816 407.254 481.499 258.46 417.491C109.667 353.484 60.0524 263.056 109.945 181.799H109.995Z" fill="#562129"/>
</g>
<g style="mix-blend-mode:multiply" opacity="0.98">
<path d="M729.23 358.004C773.941 352.919 816.176 342.939 851.156 327.874C886.137 312.809 909.516 294.656 921.319 275.429C945.305 236.373 921.471 192.891 849.943 162.121C778.415 131.351 677.391 121.144 586.579 131.464C541.868 136.53 499.659 146.529 464.653 161.594C429.647 176.659 406.293 194.793 394.49 214.02C370.529 253.095 394.338 296.557 465.866 327.328C537.394 358.098 638.417 368.305 729.23 358.004ZM109.995 180.877C134.537 140.88 183.292 103.104 255.958 71.7877C328.623 40.4713 416.555 19.5687 509.541 9.00434C698.445 -12.4445 908.657 8.87251 1057.45 72.8799C1206.24 136.887 1255.81 227.296 1205.91 308.572C1181.37 348.569 1132.62 386.345 1059.95 417.642C987.287 448.94 899.355 469.88 806.369 480.426C617.465 501.893 407.254 480.558 258.46 416.569C109.667 352.58 60.0524 262.134 109.945 180.839L109.995 180.877Z" fill="#521C24"/>
</g>
<g style="mix-blend-mode:multiply">
<path d="M729.23 357.081C773.941 351.996 816.176 342.016 851.156 326.951C886.137 311.886 909.516 293.751 921.319 274.525C945.305 235.469 921.471 191.987 849.943 161.217C778.415 130.447 677.391 120.24 586.579 130.56C541.868 135.625 499.659 145.625 464.653 160.69C429.647 175.755 406.293 193.889 394.49 213.116C370.529 252.191 394.338 295.653 465.866 326.424C537.394 357.194 638.417 367.382 729.23 357.081ZM109.995 179.954C134.537 139.957 183.292 102.181 255.958 70.8648C328.623 39.5484 416.555 18.6457 509.541 8.08136C698.445 -13.3674 908.657 7.94954 1057.45 71.957C1206.24 135.964 1255.81 226.373 1205.91 307.649C1181.37 347.646 1132.62 385.422 1059.95 416.719C987.287 448.017 899.355 468.957 806.369 479.503C617.465 500.97 407.254 479.635 258.46 415.646C109.667 351.658 60.0524 261.211 109.945 179.954H109.995Z" fill="#4F1820"/>
</g>
</g>
<path opacity="0.3" d="M398.988 26.2155C611.525 -20.1847 878.731 -4.87485 1057.35 71.9755L658.005 243.792L398.988 26.2155Z" fill="#3D588C"/>
<path opacity="0.1" d="M255.933 70.8829C301.076 51.8253 349.097 36.831 398.988 26.2152L657.904 243.791L98.47 281.171C70.6677 206.75 123.088 128.111 255.933 70.8829Z" fill="white"/>
<path opacity="0.15" d="M571.009 484.436C456.716 476.489 346.77 453.609 258.308 415.627C169.846 377.644 116.769 330.34 98.3434 281.172L657.904 243.792L571.009 484.436Z" fill="white"/>
</g>
<defs>
<linearGradient id="paint0_linear_428_279" x1="1106.38" y1="577.896" x2="359.396" y2="-0.946638" gradientUnits="userSpaceOnUse">
<stop stop-color="#1566E1"/>
<stop offset="0.98" stop-color="#1566E1"/>
</linearGradient>
<linearGradient id="paint1_linear_428_279" x1="718.303" y1="491.41" x2="717.089" y2="143.341" gradientUnits="userSpaceOnUse">
<stop stop-color="#089CFC"/>
<stop offset="0.99" stop-color="#2B2DFD"/>
</linearGradient>
<linearGradient id="paint2_linear_428_279" x1="718.291" y1="444.333" x2="717.077" y2="96.2639" gradientUnits="userSpaceOnUse">
<stop stop-color="#089CFC"/>
<stop offset="0.99" stop-color="#2B2DFD"/>
</linearGradient>
<clipPath id="clip0_428_279">
<rect width="437" height="671" fill="white" transform="matrix(-1 0 0 1 437 0)"/>
</clipPath>
</defs>
</svg>
