<svg width="24" height="24" viewBox="0 0 24 24" fill="none" xmlns="http://www.w3.org/2000/svg">
<path d="M20.3303 3.59125C18.7767 2.84787 17.1156 2.30762 15.3789 2C15.1656 2.39436 14.9164 2.92479 14.7446 3.34674C12.8985 3.0628 11.0693 3.0628 9.25716 3.34674C9.08539 2.92479 8.83056 2.39436 8.61536 2C6.87681 2.30762 5.21376 2.84986 3.66019 3.59518C0.526643 8.43786 -0.322811 13.1603 0.101917 17.8156C2.18025 19.4029 4.19441 20.3671 6.17458 20.998C6.66349 20.3099 7.09953 19.5784 7.47518 18.8074C6.75975 18.5294 6.07453 18.1863 5.42707 17.788C5.59884 17.6579 5.76686 17.5218 5.92918 17.3818C9.8782 19.2708 14.1689 19.2708 18.0707 17.3818C18.235 17.5218 18.403 17.6579 18.5728 17.788C17.9235 18.1883 17.2364 18.5313 16.521 18.8094C16.8966 19.5784 17.3308 20.3119 17.8216 21C19.8036 20.369 21.8197 19.4049 23.898 17.8156C24.3964 12.4189 23.0467 7.73984 20.3303 3.59125ZM8.01318 14.9526C6.82772 14.9526 5.85555 13.8208 5.85555 12.4425C5.85555 11.0643 6.80696 9.93049 8.01318 9.93049C9.21942 9.93049 10.1916 11.0623 10.1708 12.4425C10.1727 13.8208 9.21942 14.9526 8.01318 14.9526ZM15.9867 14.9526C14.8013 14.9526 13.8291 13.8208 13.8291 12.4425C13.8291 11.0643 14.7805 9.93049 15.9867 9.93049C17.193 9.93049 18.1651 11.0623 18.1444 12.4425C18.1444 13.8208 17.193 14.9526 15.9867 14.9526Z" fill="#A9AFB6"/>
</svg>
