<svg width="375" height="256" viewBox="0 0 375 256" fill="none" xmlns="http://www.w3.org/2000/svg">
<g clip-path="url(#clip0_153_582)">
<g opacity="0.35" filter="url(#filter0_f_153_582)">
<path d="M46.5585 -103.564V112.004C46.5146 119.205 48.108 126.326 51.2235 132.85C57.3283 145.918 69.4562 158.254 87.5317 168.474C105.607 178.694 127.48 185.532 150.611 188.976C197.601 195.986 249.891 189.019 286.903 168.123C314.403 152.59 328.273 132.297 328.499 112.004V-103.564H46.5585Z" fill="url(#paint0_linear_153_582)"/>
</g>
<path opacity="0.15" d="M188.575 252.943C272.651 252.12 340.404 211.8 339.903 162.886C339.403 113.971 270.84 74.9848 186.764 75.8071C102.687 76.6295 34.9347 116.949 35.4348 165.864C35.9349 214.778 104.498 253.765 188.575 252.943Z" fill="#233E71"/>
<path opacity="0.3" d="M187.935 237.631C265.678 237.22 328.505 201.297 328.262 157.394C328.019 113.492 264.799 78.2354 187.056 78.6468C109.312 79.0582 46.4854 114.982 46.7283 158.884C46.9712 202.786 110.192 238.043 187.935 237.631Z" fill="url(#paint1_linear_153_582)"/>
<path opacity="0.4" d="M187.97 222.258C265.713 221.846 328.54 185.923 328.297 142.021C328.054 98.1182 264.834 62.8618 187.09 63.2732C109.347 63.6847 46.5201 99.6081 46.763 143.51C47.0058 187.413 110.226 222.669 187.97 222.258Z" fill="url(#paint2_linear_153_582)"/>
<path d="M187.973 206.885C265.716 206.473 328.543 170.55 328.3 126.647C328.057 82.7449 264.837 47.4885 187.093 47.9C109.35 48.3114 46.523 84.2348 46.7659 128.137C47.0088 172.04 110.229 207.296 187.973 206.885Z" fill="url(#paint3_linear_153_582)"/>
<g opacity="0.1">
<g style="mix-blend-mode:multiply" opacity="0.02">
<path d="M169.793 164.071C158.671 162.411 148.165 159.151 139.463 154.232C130.762 149.312 124.947 143.391 122.01 137.112C116.044 124.358 121.973 110.159 139.765 100.111C157.558 90.0628 182.688 86.7298 205.277 90.0997C216.399 91.7539 226.899 95.0192 235.606 99.9388C244.314 104.858 250.123 110.78 253.059 117.059C259.02 129.819 253.097 144.012 235.305 154.06C217.512 164.108 192.382 167.435 169.793 164.071ZM323.828 106.23C317.723 93.1683 305.595 80.8325 287.519 70.6061C269.444 60.3796 247.571 53.5537 224.44 50.1039C177.45 43.0997 125.16 50.0609 88.1478 70.9627C51.1355 91.8646 38.8064 121.388 51.2172 147.923C57.322 160.99 69.4499 173.326 87.5254 183.546C105.601 193.767 127.474 200.605 150.604 204.048C197.594 211.059 249.884 204.091 286.897 183.196C323.909 162.3 336.251 132.764 323.84 106.205L323.828 106.23Z" fill="#FCFAFB"/>
</g>
<g style="mix-blend-mode:multiply" opacity="0.04">
<path d="M169.793 163.77C158.671 162.109 148.165 158.85 139.463 153.931C130.762 149.011 124.947 143.089 122.01 136.811C116.044 124.057 121.973 109.858 139.765 99.8096C157.558 89.7614 182.688 86.4284 205.277 89.7983C216.399 91.4525 226.899 94.7179 235.606 99.6374C244.314 104.557 250.123 110.479 253.059 116.757C259.02 129.517 253.097 143.71 235.305 153.758C217.512 163.806 192.382 167.133 169.793 163.77ZM323.828 105.928C317.723 92.8669 305.595 80.5311 287.519 70.3047C269.444 60.0782 247.571 53.2524 224.44 49.8025C177.45 42.7984 125.16 49.7595 88.1478 70.6613C51.1355 91.5632 38.8064 121.087 51.2172 147.621C57.322 160.689 69.4499 173.024 87.5254 183.245C105.601 193.465 127.474 200.303 150.604 203.747C197.594 210.757 249.884 203.79 286.897 182.894C323.909 161.999 336.251 132.463 323.84 105.928H323.828Z" fill="#F8F6F6"/>
</g>
<g style="mix-blend-mode:multiply" opacity="0.06">
<path d="M169.793 163.468C158.671 161.808 148.165 158.549 139.463 153.629C130.762 148.71 124.947 142.788 122.01 136.509C116.044 123.755 121.973 109.556 139.765 99.5083C157.558 89.4602 182.688 86.1272 205.277 89.4971C216.399 91.1512 226.899 94.4166 235.606 99.3361C244.314 104.256 250.123 110.178 253.059 116.456C259.02 129.216 253.097 143.409 235.305 153.457C217.512 163.505 192.382 166.832 169.793 163.468ZM323.828 105.627C317.723 92.5656 305.595 80.2299 287.519 70.0034C269.444 59.7769 247.571 52.9511 224.44 49.5013C177.45 42.4971 125.16 49.4582 88.1478 70.3601C51.1355 91.2619 38.8064 120.785 51.2172 147.32C57.322 160.387 69.4499 172.723 87.5254 182.944C105.601 193.164 127.474 199.996 150.604 203.446C197.594 210.456 249.884 203.489 286.897 182.593C323.909 161.697 336.251 132.162 323.84 105.627H323.828Z" fill="#F5F1F2"/>
</g>
<g style="mix-blend-mode:multiply" opacity="0.08">
<path d="M169.793 163.167C158.671 161.506 148.165 158.247 139.463 153.328C130.762 148.408 124.947 142.486 122.01 136.208C116.044 123.454 121.973 109.255 139.765 99.2068C157.558 89.1586 182.688 85.8257 205.277 89.1955C216.399 90.8497 226.899 94.1151 235.606 99.0346C244.314 103.954 250.123 109.876 253.059 116.155C259.02 128.915 253.097 143.107 235.305 153.156C217.512 163.204 192.382 166.531 169.793 163.167ZM323.828 105.325C317.723 92.2641 305.595 79.9284 287.519 69.7019C269.444 59.4754 247.571 52.6496 224.44 49.1997C177.45 42.1956 125.16 49.1567 88.1478 70.0586C51.1355 90.9604 38.8064 120.484 51.2172 147.018C57.322 160.08 69.4499 172.422 87.5254 182.642C105.601 192.862 127.474 199.694 150.604 203.144C197.594 210.155 249.884 203.187 286.897 182.292C323.909 161.396 336.251 131.86 323.84 105.325H323.828Z" fill="#F1EDEE"/>
</g>
<g style="mix-blend-mode:multiply" opacity="0.1">
<path d="M169.793 162.866C158.671 161.205 148.165 157.946 139.463 153.027C130.762 148.107 124.947 142.185 122.01 135.907C116.044 123.153 121.973 108.954 139.765 98.9056C157.558 88.8575 182.688 85.5245 205.277 88.8944C216.399 90.5486 226.899 93.8139 235.606 98.7334C244.314 103.653 250.123 109.575 253.059 115.853C259.02 128.613 253.097 142.806 235.305 152.854C217.512 162.903 192.382 166.229 169.793 162.866ZM323.828 105.024C317.723 91.9629 305.595 79.6272 287.519 69.4007C269.444 59.1742 247.571 52.3484 224.44 48.8986C177.45 41.8944 125.16 48.8555 88.1478 69.7512C51.1355 90.6469 38.8064 120.176 51.2172 146.717C57.322 159.779 69.4499 172.121 87.5254 182.341C105.601 192.561 127.474 199.393 150.604 202.843C197.594 209.853 249.884 202.886 286.897 181.99C323.909 161.095 336.251 131.559 323.84 105.024H323.828Z" fill="#EEE8E9"/>
</g>
<g style="mix-blend-mode:multiply" opacity="0.12">
<path d="M169.793 162.564C158.671 160.904 148.165 157.645 139.463 152.725C130.762 147.806 124.947 141.884 122.01 135.605C116.044 122.851 121.973 108.652 139.765 98.6042C157.558 88.5561 182.688 85.2231 205.277 88.593C216.399 90.2472 226.899 93.5125 235.606 98.432C244.314 103.352 250.123 109.273 253.059 115.552C259.02 128.312 253.097 142.505 235.305 152.553C217.512 162.601 192.382 165.928 169.793 162.564ZM323.828 104.723C317.723 91.6615 305.595 79.3258 287.519 69.0993C269.444 58.8729 247.571 52.047 224.44 48.5972C177.45 41.593 125.16 48.5541 88.1478 69.4498C51.1355 90.3455 38.8064 119.875 51.2172 146.416C57.322 159.477 69.4499 171.819 87.5254 182.039C105.601 192.26 127.474 199.092 150.604 202.542C197.594 209.552 249.884 202.585 286.897 181.689C323.909 160.793 336.251 131.258 323.84 104.723H323.828Z" fill="#EAE4E5"/>
</g>
<g style="mix-blend-mode:multiply" opacity="0.14">
<path d="M169.793 162.263C158.671 160.603 148.165 157.343 139.463 152.424C130.762 147.504 124.947 141.583 122.01 135.304C116.044 122.55 121.973 108.351 139.765 98.3029C157.558 88.2548 182.688 84.9218 205.277 88.2917C216.399 89.9459 226.899 93.2112 235.606 98.1308C244.314 103.05 250.123 108.972 253.059 115.251C259.02 128.011 253.097 142.204 235.305 152.252C217.512 162.3 192.382 165.627 169.793 162.263ZM323.828 104.422C317.723 91.3603 305.595 79.0245 287.519 68.7981C269.444 58.5716 247.571 51.7457 224.44 48.2959C177.45 41.2917 125.16 48.2529 88.1478 69.1486C51.1355 90.0443 38.8064 119.574 51.2172 146.115C57.322 159.176 69.4499 171.518 87.5254 181.738C105.601 191.959 127.474 198.791 150.604 202.24C197.594 209.251 249.884 202.283 286.897 181.388C323.909 160.492 336.251 130.956 323.84 104.422H323.828Z" fill="#E7DFE0"/>
</g>
<g style="mix-blend-mode:multiply" opacity="0.16">
<path d="M169.793 161.962C158.671 160.301 148.165 157.042 139.463 152.123C130.762 147.203 124.947 141.281 122.01 135.003C116.044 122.243 121.973 108.05 139.765 98.0016C157.558 87.9534 182.688 84.6204 205.277 87.9903C216.399 89.6445 226.899 92.9098 235.606 97.8294C244.314 102.749 250.123 108.671 253.059 114.949C259.02 127.709 253.097 141.902 235.305 151.95C217.512 161.999 192.382 165.325 169.793 161.962ZM323.828 104.12C317.723 91.0589 305.595 78.7231 287.519 68.4967C269.444 58.2702 247.571 51.4443 224.44 47.9945C177.45 40.9903 125.16 47.9515 88.1478 68.8472C51.1355 89.7429 38.8064 119.272 51.2172 145.813C57.322 158.875 69.4499 171.21 87.5254 181.437C105.601 191.663 127.474 198.489 150.604 201.939C197.594 208.949 249.884 201.982 286.897 181.086C323.909 160.191 336.251 130.655 323.84 104.12H323.828Z" fill="#E3DBDC"/>
</g>
<g style="mix-blend-mode:multiply" opacity="0.18">
<path d="M169.793 161.66C158.671 160 148.165 156.741 139.463 151.821C130.762 146.902 124.947 140.98 122.01 134.701C116.044 121.941 121.973 107.748 139.765 97.7003C157.558 87.6522 182.688 84.3192 205.277 87.6891C216.399 89.3433 226.899 92.6086 235.606 97.5281C244.314 102.448 250.123 108.37 253.059 114.648C259.02 127.408 253.097 141.601 235.305 151.649C217.512 161.697 192.382 165.024 169.793 161.66ZM323.828 103.819C317.723 90.7576 305.595 78.4219 287.519 68.1954C269.444 57.969 247.571 51.1431 224.44 47.6933C177.45 40.683 125.16 47.6502 88.1478 68.5459C51.1355 89.4417 38.8064 118.971 51.2172 145.512C57.322 158.573 69.4499 170.909 87.5254 181.136C105.601 191.362 127.474 198.188 150.604 201.638C197.594 208.648 249.884 201.681 286.897 180.785C323.909 159.889 336.251 130.354 323.84 103.819H323.828Z" fill="#E0D6D8"/>
</g>
<g style="mix-blend-mode:multiply" opacity="0.2">
<path d="M169.793 161.359C158.671 159.699 148.165 156.44 139.463 151.52C130.762 146.601 124.947 140.679 122.01 134.4C116.044 121.64 121.973 107.447 139.765 97.399C157.558 87.3509 182.688 84.0179 205.277 87.3817C216.399 89.042 226.899 92.3012 235.606 97.2207C244.314 102.14 250.123 108.062 253.059 114.341C259.02 127.101 253.097 141.294 235.305 151.342C217.512 161.39 192.382 164.723 169.793 161.359ZM323.828 103.518C317.723 90.4564 305.595 78.1206 287.519 67.8942C269.444 57.6677 247.571 50.8418 224.44 47.392C177.45 40.3817 125.16 47.349 88.1478 68.2447C51.1355 89.1404 38.8064 118.67 51.2172 145.211C57.322 158.272 69.4499 170.608 87.5254 180.834C105.601 191.061 127.474 197.887 150.604 201.336C197.594 208.347 249.884 201.379 286.897 180.484C323.909 159.588 336.251 130.052 323.84 103.518H323.828Z" fill="#DCD2D3"/>
</g>
<g style="mix-blend-mode:multiply" opacity="0.22">
<path d="M169.793 161.058C158.671 159.397 148.165 156.138 139.463 151.219C130.762 146.299 124.947 140.377 122.01 134.099C116.044 121.339 121.973 107.146 139.765 97.0977C157.558 87.0495 182.688 83.7165 205.277 87.0803C216.399 88.7406 226.899 91.9998 235.606 96.9193C244.314 101.839 250.123 107.761 253.059 114.039C259.02 126.799 253.097 140.992 235.305 151.04C217.512 161.088 192.382 164.421 169.793 161.058ZM323.828 103.216C317.723 90.155 305.595 77.8193 287.519 67.5928C269.444 57.3663 247.571 50.5404 224.44 47.0906C177.45 40.0803 125.16 47.0476 88.1478 67.9433C51.1355 88.839 38.8064 118.368 51.2172 144.909C57.322 157.971 69.4499 170.306 87.5254 180.533C105.601 190.759 127.474 197.585 150.604 201.035C197.594 208.045 249.884 201.078 286.897 180.182C323.909 159.287 336.251 129.751 323.84 103.216H323.828Z" fill="#D9CDCF"/>
</g>
<g style="mix-blend-mode:multiply" opacity="0.24">
<path d="M169.793 160.75C158.671 159.096 148.165 155.831 139.463 150.911C130.762 145.992 124.947 140.07 122.01 133.791C116.044 121.031 121.973 106.838 139.765 96.7901C157.558 86.742 182.688 83.409 205.277 86.7727C216.399 88.4331 226.899 91.6923 235.606 96.6118C244.314 101.531 250.123 107.453 253.059 113.732C259.02 126.492 253.097 140.685 235.305 150.733C217.512 160.781 192.382 164.12 169.793 160.75ZM323.828 102.946C317.723 89.8843 305.595 77.5486 287.519 67.3221C269.444 57.0957 247.571 50.2698 224.44 46.82C177.45 39.8097 125.16 46.777 88.1478 67.6727C51.1355 88.5684 38.8064 118.098 51.2172 144.639C57.322 157.7 69.4499 170.036 87.5254 180.262C105.601 190.489 127.474 197.315 150.604 200.764C197.594 207.769 249.884 200.807 286.897 179.912C323.909 159.016 336.251 129.45 323.84 102.915L323.828 102.946Z" fill="#D6C9CB"/>
</g>
<g style="mix-blend-mode:multiply" opacity="0.25">
<path d="M169.793 160.449C158.671 158.795 148.165 155.529 139.463 150.61C130.762 145.69 124.947 139.768 122.01 133.49C116.044 120.73 121.973 106.537 139.765 96.4889C157.558 86.4407 182.688 83.1077 205.277 86.4715C216.399 88.1318 226.899 91.391 235.606 96.3105C244.314 101.23 250.123 107.152 253.059 113.43C259.02 126.184 253.097 140.383 235.305 150.432C217.512 160.48 192.382 163.819 169.793 160.449ZM323.828 102.644C317.723 89.5831 305.595 77.2473 287.519 67.0209C269.444 56.7944 247.571 49.9685 224.44 46.5187C177.45 39.5084 125.16 46.4757 88.1478 67.3714C51.1355 88.2671 38.8064 117.797 51.2172 144.337C57.322 157.399 69.4499 169.735 87.5254 179.961C105.601 190.187 127.474 197.013 150.604 200.463C197.594 207.467 249.884 200.506 286.897 179.61C323.909 158.715 336.251 129.148 323.84 102.614L323.828 102.644Z" fill="#D2C4C6"/>
</g>
<g style="mix-blend-mode:multiply" opacity="0.27">
<path d="M169.792 160.148C158.67 158.493 148.164 155.228 139.463 150.309C130.762 145.389 124.946 139.467 122.01 133.189C116.044 120.429 121.972 106.236 139.765 96.1876C157.558 86.1394 182.687 82.8065 205.277 86.1702C216.399 87.8305 226.898 91.0897 235.606 96.0093C244.314 100.929 250.123 106.851 253.059 113.129C259.019 125.883 253.097 140.082 235.304 150.13C217.512 160.178 192.382 163.518 169.792 160.148ZM323.827 102.312C317.722 89.251 305.594 76.9092 287.519 66.6888C269.443 56.4685 247.583 49.6304 224.453 46.1867C177.463 39.1764 125.172 46.1437 88.16 67.0394C51.1477 87.9351 38.8186 117.465 51.2294 144.005C57.3342 157.067 69.4621 169.402 87.5376 179.629C105.613 189.855 127.486 196.681 150.617 200.131C197.607 207.135 249.897 200.174 286.909 179.278C323.921 158.383 336.25 128.847 323.84 102.312H323.827Z" fill="#CFC0C2"/>
</g>
<g style="mix-blend-mode:multiply" opacity="0.29">
<path d="M169.793 159.846C158.671 158.192 148.165 154.927 139.463 150.007C130.762 145.088 124.947 139.166 122.01 132.887C116.044 120.127 121.973 105.934 139.765 95.8862C157.558 85.838 182.688 82.5051 205.277 85.8688C216.399 87.5291 226.899 90.7883 235.606 95.7078C244.314 100.627 250.123 106.549 253.059 112.828C259.02 125.582 253.097 139.781 235.305 149.829C217.512 159.877 192.382 163.216 169.793 159.846ZM323.828 102.011C317.723 88.9496 305.595 76.6078 287.519 66.3874C269.444 56.1671 247.571 49.3351 224.44 45.8853C177.45 38.875 125.16 45.8423 88.1478 66.738C51.1355 87.6337 38.8064 117.163 51.2172 143.704C57.322 156.765 69.4499 169.101 87.5254 179.328C105.601 189.554 127.474 196.38 150.604 199.83C197.594 206.834 249.884 199.873 286.897 178.977C323.909 158.081 336.251 128.546 323.84 102.011H323.828Z" fill="#CBBBBD"/>
</g>
<g style="mix-blend-mode:multiply" opacity="0.31">
<path d="M169.793 159.545C158.671 157.891 148.165 154.625 139.463 149.706C130.762 144.786 124.947 138.864 122.01 132.586C116.044 119.826 121.973 105.633 139.765 95.5849C157.558 85.5368 182.688 82.2038 205.277 85.5675C216.399 87.2279 226.899 90.4871 235.606 95.4066C244.314 100.326 250.123 106.248 253.059 112.527C259.02 125.28 253.097 139.479 235.305 149.528C217.512 159.576 192.382 162.915 169.793 159.545ZM323.828 101.71C317.723 88.6484 305.595 76.3065 287.519 66.0862C269.444 55.8659 247.571 49.0339 224.44 45.584C177.45 38.5737 125.16 45.541 88.1478 66.4367C51.1355 87.3324 38.8064 116.862 51.2172 143.403C57.322 156.464 69.4499 168.8 87.5254 179.026C105.601 189.253 127.474 196.079 150.604 199.528C197.594 206.533 249.884 199.572 286.897 178.67C323.909 157.768 336.251 128.244 323.84 101.71H323.828Z" fill="#C8B6B9"/>
</g>
<g style="mix-blend-mode:multiply" opacity="0.33">
<path d="M169.793 159.244C158.671 157.589 148.165 154.324 139.463 149.405C130.762 144.485 124.947 138.563 122.01 132.285C116.044 119.525 121.973 105.332 139.765 95.2835C157.558 85.2354 182.688 81.9024 205.277 85.2661C216.399 86.9265 226.899 90.1857 235.606 95.1052C244.314 100.025 250.123 105.947 253.059 112.225C259.02 124.979 253.097 139.178 235.305 149.226C217.512 159.274 192.382 162.613 169.793 159.244ZM323.828 101.408C317.723 88.347 305.595 76.0051 287.519 65.7848C269.444 55.5645 247.571 48.7325 224.44 45.2826C177.45 38.2723 125.16 45.2396 88.1478 66.1353C51.1355 87.031 38.8064 116.56 51.2172 143.101C57.322 156.163 69.4499 168.498 87.5254 178.725C105.601 188.951 127.474 195.777 150.604 199.227C197.594 206.231 249.884 199.27 286.897 178.368C323.909 157.466 336.251 127.943 323.84 101.408H323.828Z" fill="#C4B2B5"/>
</g>
<g style="mix-blend-mode:multiply" opacity="0.35">
<path d="M169.793 158.942C158.671 157.288 148.165 154.023 139.463 149.103C130.762 144.184 124.947 138.262 122.01 131.983C116.044 119.223 121.973 105.031 139.765 94.9824C157.558 84.9342 182.688 81.6013 205.277 84.965C216.399 86.6253 226.899 89.8845 235.606 94.8041C244.314 99.7236 250.123 105.645 253.059 111.924C259.02 124.678 253.097 138.877 235.305 148.925C217.512 158.973 192.382 162.312 169.793 158.942ZM323.828 101.138C317.723 88.0704 305.595 75.7347 287.519 65.5144C269.444 55.2941 247.571 48.4559 224.44 45.0123C177.45 38.0019 125.16 44.9692 88.1478 65.8649C51.1355 86.7606 38.8064 116.29 51.2172 142.831C57.322 155.892 69.4499 168.228 87.5254 178.455C105.601 188.681 127.474 195.507 150.604 198.957C197.594 205.961 249.884 199 286.897 178.098C323.909 157.196 336.251 127.642 323.84 101.107L323.828 101.138Z" fill="#C1ADB0"/>
</g>
<g style="mix-blend-mode:multiply" opacity="0.37">
<path d="M169.793 158.641C158.671 156.987 148.165 153.722 139.463 148.802C130.762 143.882 124.947 137.961 122.01 131.682C116.044 118.922 121.973 104.729 139.765 94.681C157.558 84.6329 182.688 81.2999 205.277 84.6636C216.399 86.3239 226.899 89.5831 235.606 94.5027C244.314 99.4222 250.123 105.344 253.059 111.623C259.02 124.377 253.097 138.576 235.305 148.624C217.512 158.672 192.382 162.011 169.793 158.641ZM323.828 100.837C317.723 87.7691 305.595 75.4333 287.519 65.213C269.444 54.9927 247.571 48.1545 224.44 44.7109C177.45 37.7005 125.16 44.6678 88.1478 65.5635C51.1355 86.4592 38.8064 115.989 51.2172 142.53C57.322 155.591 69.4499 167.927 87.5254 178.153C105.601 188.38 127.474 195.205 150.604 198.655C197.594 205.659 249.884 198.698 286.897 177.796C323.909 156.895 336.251 127.341 323.84 100.806L323.828 100.837Z" fill="#BDA9AC"/>
</g>
<g style="mix-blend-mode:multiply" opacity="0.39">
<path d="M169.793 158.34C158.671 156.685 148.165 153.42 139.463 148.501C130.762 143.581 124.947 137.659 122.01 131.381C116.044 118.621 121.973 104.428 139.765 94.3796C157.558 84.3314 182.688 80.9985 205.277 84.3622C216.399 86.0225 226.899 89.2817 235.606 94.2013C244.314 99.1208 250.123 105.043 253.059 111.321C259.02 124.075 253.097 138.274 235.305 148.322C217.512 158.37 192.382 161.71 169.793 158.34ZM323.828 100.498C317.723 87.4369 305.595 75.1012 287.519 64.8809C269.444 54.6605 247.571 47.8224 224.44 44.3787C177.45 37.3684 125.16 44.3357 88.1478 65.2314C51.1355 86.1271 38.8064 115.657 51.2172 142.197C57.322 155.259 69.4499 167.594 87.5254 177.821C105.601 188.047 127.474 194.873 150.604 198.323C197.594 205.327 249.884 198.366 286.897 177.464C323.909 156.562 336.251 127.039 323.84 100.498H323.828Z" fill="#BAA4A8"/>
</g>
<g style="mix-blend-mode:multiply" opacity="0.41">
<path d="M169.793 158.038C158.671 156.384 148.165 153.119 139.463 148.199C130.762 143.28 124.947 137.358 122.01 131.079C116.044 118.319 121.973 104.126 139.765 94.0783C157.558 84.0302 182.688 80.6972 205.277 84.0609C216.399 85.7213 226.899 88.9805 235.606 93.9C244.314 98.8195 250.123 104.748 253.059 111.026C259.02 123.78 253.097 137.979 235.305 148.027C217.512 158.075 192.382 161.408 169.793 158.038ZM323.828 100.197C317.723 87.1356 305.595 74.7999 287.519 64.5796C269.444 54.3593 247.571 47.5211 224.44 44.0774C177.45 37.0671 125.16 44.0344 88.1478 64.9301C51.1355 85.8258 38.8064 115.355 51.2172 141.896C57.322 154.958 69.4499 167.293 87.5254 177.52C105.601 187.746 127.474 194.572 150.604 198.022C197.594 205.026 249.884 198.065 286.897 177.163C323.909 156.261 336.251 126.738 323.84 100.197H323.828Z" fill="#B7A0A3"/>
</g>
<g style="mix-blend-mode:multiply" opacity="0.43">
<path d="M169.793 157.737C158.671 156.083 148.165 152.818 139.463 147.898C130.762 142.979 124.947 137.057 122.01 130.778C116.044 118.018 121.973 103.825 139.765 93.7771C157.558 83.7289 182.688 80.396 205.277 83.7597C216.399 85.42 226.899 88.6792 235.606 93.5987C244.314 98.5183 250.123 104.446 253.059 110.725C259.02 123.479 253.097 137.678 235.305 147.726C217.512 157.774 192.382 161.107 169.793 157.737ZM323.828 99.8957C317.723 86.8344 305.595 74.4987 287.519 64.2783C269.444 54.058 247.571 47.2199 224.44 43.7762C177.45 36.7659 125.16 43.727 88.1478 64.6289C51.1355 85.5307 38.8064 115.054 51.2172 141.595C57.322 154.656 69.4499 166.992 87.5254 177.218C105.601 187.445 127.474 194.271 150.604 197.721C197.594 204.725 249.884 197.764 286.897 176.862C323.909 155.96 336.251 126.437 323.84 99.8957H323.828Z" fill="#B39B9F"/>
</g>
<g style="mix-blend-mode:multiply" opacity="0.45">
<path d="M169.793 157.436C158.671 155.782 148.165 152.516 139.463 147.597C130.762 142.677 124.947 136.755 122.01 130.471C116.044 117.717 121.973 103.524 139.765 93.4757C157.558 83.4275 182.688 80.0946 205.277 83.4583C216.399 85.1186 226.899 88.3778 235.606 93.2973C244.314 98.2169 250.123 104.145 253.059 110.423C259.02 123.177 253.097 137.376 235.305 147.418C217.512 157.46 192.382 160.806 169.793 157.436ZM323.828 99.5943C317.723 86.533 305.595 74.1973 287.519 63.9769C269.444 53.7566 247.571 46.9185 224.44 43.4748C177.45 36.4645 125.16 43.4256 88.1478 64.3275C51.1355 85.2293 38.8064 114.753 51.2172 141.294C57.322 154.355 69.4499 166.691 87.5254 176.917C105.601 187.144 127.474 193.969 150.604 197.419C197.594 204.423 249.884 197.462 286.897 176.56C323.909 155.659 336.251 126.135 323.84 99.5943H323.828Z" fill="#B0979A"/>
</g>
<g style="mix-blend-mode:multiply" opacity="0.47">
<path d="M169.793 157.134C158.671 155.48 148.165 152.215 139.463 147.295C130.762 142.376 124.947 136.454 122.01 130.169C116.044 117.415 121.973 103.223 139.765 93.1744C157.558 83.1263 182.688 79.7933 205.277 83.157C216.399 84.8174 226.899 88.0765 235.606 92.9961C244.314 97.9156 250.123 103.844 253.059 110.122C259.02 122.876 253.097 137.075 235.305 147.117C217.512 157.159 192.382 160.504 169.793 157.134ZM323.828 99.2931C317.723 86.2317 305.595 73.896 287.519 63.6757C269.444 53.4553 247.571 46.6172 224.44 43.1735C177.45 36.1632 125.16 43.1243 88.1478 64.0262C51.1355 84.9281 38.8064 114.451 51.2172 140.992C57.322 154.054 69.4499 166.389 87.5254 176.616C105.601 186.842 127.474 193.668 150.604 197.118C197.594 204.122 249.884 197.161 286.897 176.259C323.909 155.357 336.251 125.834 323.84 99.2931H323.828Z" fill="#AC9296"/>
</g>
<g style="mix-blend-mode:multiply" opacity="0.49">
<path d="M169.793 156.833C158.671 155.179 148.165 151.914 139.463 146.994C130.762 142.075 124.947 136.147 122.01 129.868C116.044 117.114 121.973 102.921 139.765 92.8731C157.558 82.825 182.688 79.492 205.277 82.8557C216.399 84.5161 226.899 87.7753 235.606 92.6948C244.314 97.6143 250.123 103.542 253.059 109.821C259.02 122.575 253.097 136.774 235.305 146.816C217.512 156.858 192.382 160.203 169.793 156.833ZM323.828 98.9918C317.723 85.9305 305.595 73.5947 287.519 63.3744C269.444 53.1541 247.571 46.3159 224.44 42.8723C177.45 35.8619 125.16 42.8231 88.1478 63.7249C51.1355 84.6268 38.8064 114.15 51.2172 140.691C57.322 153.752 69.4499 166.088 87.5254 176.315C105.601 186.541 127.474 193.367 150.604 196.817C197.594 203.821 249.884 196.86 286.897 175.958C323.909 155.056 336.251 125.533 323.84 98.9918H323.828Z" fill="#A98E92"/>
</g>
<g style="mix-blend-mode:multiply" opacity="0.51">
<path d="M169.793 156.532C158.671 154.877 148.165 151.612 139.463 146.693C130.762 141.773 124.947 135.845 122.01 129.566C116.044 116.813 121.973 102.62 139.765 92.5716C157.558 82.5235 182.688 79.1905 205.277 82.5542C216.399 84.2146 226.899 87.4738 235.606 92.3933C244.314 97.3128 250.123 103.241 253.059 109.519C259.02 122.273 253.097 136.472 235.305 146.514C217.512 156.556 192.382 159.902 169.793 156.532ZM323.828 98.6903C317.723 85.6289 305.595 73.2932 287.519 63.0729C269.444 52.8526 247.571 46.0144 224.44 42.5707C177.45 35.5604 125.16 42.5215 88.1478 63.4234C51.1355 84.3253 38.8064 113.849 51.2172 140.389C57.322 153.451 69.4499 165.787 87.5254 176.013C105.601 186.239 127.474 193.065 150.604 196.515C197.594 203.519 249.884 196.558 286.897 175.656C323.909 154.755 336.251 125.225 323.84 98.6903H323.828Z" fill="#A5898D"/>
</g>
<g style="mix-blend-mode:multiply" opacity="0.53">
<path d="M169.793 156.23C158.671 154.576 148.165 151.311 139.463 146.391C130.762 141.472 124.947 135.544 122.01 129.265C116.044 116.511 121.973 102.319 139.765 92.2704C157.558 82.2222 182.688 78.8893 205.277 82.253C216.399 83.9133 226.899 87.1725 235.606 92.092C244.314 97.0116 250.123 102.94 253.059 109.218C259.02 121.972 253.097 136.171 235.305 146.213C217.512 156.255 192.382 159.6 169.793 156.23ZM323.828 98.389C317.723 85.3277 305.595 72.992 287.519 62.7716C269.444 52.5513 247.571 45.7132 224.44 42.2633C177.45 35.2592 125.16 42.2203 88.1478 63.1222C51.1355 84.024 38.8064 113.547 51.2172 140.088C57.322 153.15 69.4499 165.485 87.5254 175.712C105.601 185.938 127.474 192.764 150.604 196.214C197.594 203.218 249.884 196.257 286.897 175.355C323.909 154.453 336.251 124.924 323.84 98.389H323.828Z" fill="#A28589"/>
</g>
<g style="mix-blend-mode:multiply" opacity="0.55">
<path d="M169.793 155.929C158.671 154.275 148.165 151.01 139.463 146.09C130.762 141.171 124.947 135.243 122.01 128.964C116.044 116.21 121.973 102.017 139.765 91.9691C157.558 81.921 182.688 78.5818 205.277 81.9517C216.399 83.6121 226.899 86.8712 235.606 91.7908C244.314 96.7103 250.123 102.638 253.059 108.917C259.02 121.671 253.097 135.87 235.305 145.912C217.512 155.954 192.382 159.299 169.793 155.929ZM323.828 98.0878C317.723 85.0264 305.595 72.6907 287.519 62.4704C269.444 52.25 247.571 45.4119 224.44 41.9621C177.45 34.9579 125.16 41.919 88.1478 62.8209C51.1355 83.7227 38.8064 113.246 51.2172 139.787C57.322 152.848 69.4499 165.184 87.5254 175.41C105.601 185.637 127.474 192.463 150.604 195.913C197.594 202.917 249.884 195.956 286.897 175.054C323.909 154.152 336.251 124.653 323.84 98.0878H323.828Z" fill="#9E8085"/>
</g>
<g style="mix-blend-mode:multiply" opacity="0.57">
<path d="M169.793 155.628C158.671 153.974 148.165 150.708 139.463 145.789C130.762 140.869 124.947 134.941 122.01 128.663C116.044 115.909 121.973 101.716 139.765 91.6677C157.558 81.6196 182.688 78.2804 205.277 81.6503C216.399 83.3107 226.899 86.5699 235.606 91.4894C244.314 96.4089 250.123 102.337 253.059 108.616C259.02 121.369 253.097 135.568 235.305 145.61C217.512 155.652 192.382 158.998 169.793 155.628ZM323.828 97.7864C317.723 84.725 305.595 72.3893 287.519 62.169C269.444 51.9487 247.571 45.1105 224.44 41.6607C177.45 34.6565 125.16 41.6176 88.1478 62.5195C51.1355 83.4214 38.8064 112.945 51.2172 139.486C57.322 152.547 69.4499 164.883 87.5254 175.109C105.601 185.336 127.474 192.161 150.604 195.611C197.594 202.615 249.884 195.654 286.897 174.752C323.909 153.851 336.251 124.321 323.84 97.7864H323.828Z" fill="#9B7B80"/>
</g>
<g style="mix-blend-mode:multiply" opacity="0.59">
<path d="M169.793 155.326C158.671 153.672 148.165 150.407 139.463 145.487C130.762 140.568 124.947 134.64 122.01 128.361C116.044 115.607 121.973 101.415 139.765 91.3664C157.558 81.3183 182.688 77.9792 205.277 81.3491C216.399 83.0094 226.899 86.2686 235.606 91.1881C244.314 96.1076 250.123 102.036 253.059 108.314C259.02 121.068 253.097 135.267 235.305 145.309C217.512 155.351 192.382 158.696 169.793 155.326ZM323.828 97.4851C317.723 84.4238 305.595 72.088 287.519 61.8677C269.444 51.6474 247.571 44.8092 224.44 41.3594C177.45 34.3552 125.16 41.3164 88.1478 62.2182C51.1355 83.1201 38.8064 112.643 51.2172 139.184C57.322 152.246 69.4499 164.581 87.5254 174.808C105.601 185.034 127.474 191.86 150.604 195.31C197.594 202.314 249.884 195.353 286.897 174.451C323.909 153.549 336.251 124.038 323.84 97.4851H323.828Z" fill="#97777C"/>
</g>
<g style="mix-blend-mode:multiply" opacity="0.61">
<path d="M169.793 155.025C158.671 153.371 148.165 150.106 139.463 145.186C130.762 140.267 124.947 134.338 122.01 128.06C116.044 115.306 121.973 101.113 139.765 91.0651C157.558 81.0169 182.688 77.6778 205.277 81.0477C216.399 82.708 226.899 85.9672 235.606 90.8867C244.314 95.8063 250.123 101.734 253.059 108.013C259.02 120.767 253.097 134.966 235.305 145.008C217.512 155.05 192.382 158.395 169.793 155.025ZM323.828 97.1837C317.723 84.1224 305.595 71.7866 287.519 61.5663C269.444 51.346 247.571 44.5078 224.44 41.058C177.45 34.0538 125.16 41.015 88.1478 61.9168C51.1355 82.8187 38.8064 112.342 51.2172 138.883C57.322 151.944 69.4499 164.28 87.5254 174.506C105.601 184.733 127.474 191.559 150.604 195.009C197.594 202.013 249.884 195.052 286.897 174.15C323.909 153.248 336.251 123.718 323.84 97.1837H323.828Z" fill="#947277"/>
</g>
<g style="mix-blend-mode:multiply" opacity="0.63">
<path d="M169.793 154.724C158.671 153.07 148.165 149.804 139.463 144.885C130.762 139.965 124.947 134.037 122.01 127.759C116.044 115.005 121.973 100.812 139.765 90.7638C157.558 80.7156 182.688 77.3765 205.277 80.7464C216.399 82.4067 226.899 85.6659 235.606 90.5854C244.314 95.505 250.123 101.433 253.059 107.712C259.02 120.465 253.097 134.664 235.305 144.706C217.512 154.748 192.382 158.094 169.793 154.724ZM323.828 96.8824C317.723 83.8211 305.595 71.4854 287.519 61.265C269.444 51.0447 247.571 44.2066 224.44 40.7568C177.45 33.7526 125.16 40.7137 88.1478 61.6156C51.1355 82.5174 38.8064 112.041 51.2172 138.582C57.322 151.643 69.4499 163.979 87.5254 174.205C105.601 184.432 127.474 191.257 150.604 194.707C197.594 201.712 249.884 194.75 286.897 173.848C323.909 152.947 336.251 123.423 323.84 96.8824H323.828Z" fill="#916E73"/>
</g>
<g style="mix-blend-mode:multiply" opacity="0.65">
<path d="M169.793 154.423C158.671 152.762 148.165 149.503 139.463 144.584C130.762 139.664 124.947 133.736 122.01 127.457C116.044 114.704 121.973 100.511 139.765 90.4625C157.558 80.4144 182.688 77.0752 205.277 80.4451C216.399 82.1055 226.899 85.3647 235.606 90.2842C244.314 95.2037 250.123 101.132 253.059 107.41C259.02 120.164 253.097 134.363 235.305 144.405C217.512 154.447 192.382 157.792 169.793 154.423ZM323.828 96.5812C317.723 83.5198 305.595 71.1841 287.519 60.9638C269.444 50.7434 247.571 43.9053 224.44 40.4555C177.45 33.4513 125.16 40.4124 88.1478 61.3143C51.1355 82.2162 38.8064 111.739 51.2172 138.28C57.322 151.342 69.4499 163.677 87.5254 173.898C105.601 184.118 127.474 190.956 150.604 194.406C197.594 201.41 249.884 194.449 286.897 173.547C323.909 152.645 336.251 123.116 323.84 96.5812H323.828Z" fill="#8D696F"/>
</g>
<g style="mix-blend-mode:multiply" opacity="0.67">
<path d="M169.793 154.121C158.671 152.461 148.165 149.202 139.463 144.282C130.762 139.362 124.947 133.434 122.01 127.156C116.044 114.402 121.973 100.209 139.765 90.161C157.558 80.1129 182.688 76.7737 205.277 80.1436C216.399 81.8039 226.899 85.0631 235.606 89.9827C244.314 94.9022 250.123 100.83 253.059 107.109C259.02 119.863 253.097 134.062 235.305 144.104C217.512 154.146 192.382 157.491 169.793 154.121ZM323.828 96.2797C317.723 83.2183 305.595 70.8826 287.519 60.6623C269.444 50.4419 247.571 43.6038 224.44 40.154C177.45 33.1498 125.16 40.1109 88.1478 61.0128C51.1355 81.9146 38.8064 111.438 51.2172 137.979C57.322 151.04 69.4499 163.376 87.5254 173.596C105.601 183.817 127.474 190.655 150.604 194.105C197.594 201.109 249.884 194.148 286.897 173.246C323.909 152.344 336.251 122.808 323.84 96.2797H323.828Z" fill="#8A656A"/>
</g>
<g style="mix-blend-mode:multiply" opacity="0.69">
<path d="M169.793 153.82C158.671 152.159 148.165 148.9 139.463 143.981C130.762 139.061 124.947 133.133 122.01 126.855C116.044 114.101 121.973 99.9079 139.765 89.8597C157.558 79.8116 182.688 76.4725 205.277 79.8423C216.399 81.5027 226.899 84.7619 235.606 89.6814C244.314 94.6009 250.123 100.529 253.059 106.808C259.02 119.561 253.097 133.754 235.305 143.802C217.512 153.851 192.382 157.19 169.793 153.82ZM323.828 95.9784C317.723 82.917 305.595 70.5813 287.519 60.361C269.444 50.1407 247.571 43.3025 224.44 39.8527C177.45 32.8485 125.16 39.8097 88.1478 60.7115C51.1355 81.6134 38.8064 111.137 51.2172 137.678C57.322 150.739 69.4499 163.075 87.5254 173.295C105.601 183.515 127.474 190.353 150.604 193.803C197.594 200.807 249.884 193.846 286.897 172.944C323.909 152.043 336.251 122.513 323.84 95.9784H323.828Z" fill="#866066"/>
</g>
<g style="mix-blend-mode:multiply" opacity="0.71">
<path d="M169.793 153.519C158.671 151.858 148.165 148.599 139.463 143.679C130.762 138.76 124.947 132.832 122.01 126.553C116.044 113.799 121.973 99.6066 139.765 89.5585C157.558 79.5103 182.688 76.1712 205.277 79.5411C216.399 81.2014 226.899 84.4606 235.606 89.3801C244.314 94.2997 250.123 100.228 253.059 106.506C259.02 119.26 253.097 133.453 235.305 143.501C217.512 153.549 192.382 156.888 169.793 153.519ZM323.828 95.6771C317.723 82.6158 305.595 70.2801 287.519 60.0597C269.444 49.8394 247.571 43.0013 224.44 39.5514C177.45 32.5473 125.16 39.5084 88.1478 60.4102C51.1355 81.3121 38.8064 110.835 51.2172 137.376C57.322 150.438 69.4499 162.773 87.5254 172.994C105.601 183.214 127.474 190.052 150.604 193.502C197.594 200.506 249.884 193.545 286.897 172.643C323.909 151.741 336.251 122.193 323.84 95.6771H323.828Z" fill="#835C62"/>
</g>
<g style="mix-blend-mode:multiply" opacity="0.73">
<path d="M169.793 153.217C158.671 151.557 148.165 148.298 139.463 143.378C130.762 138.459 124.947 132.531 122.01 126.252C116.044 113.498 121.973 99.2992 139.765 89.2572C157.558 79.2152 182.688 75.8699 205.277 79.2398C216.399 80.9001 226.899 84.1593 235.606 89.0789C244.314 93.9984 250.123 99.9264 253.059 106.205C259.02 118.959 253.097 133.152 235.305 143.2C217.512 153.248 192.382 156.587 169.793 153.217ZM323.828 95.3759C317.723 82.3145 305.595 69.9788 287.519 59.7585C269.444 49.5381 247.571 42.7 224.44 39.2502C177.45 32.246 125.16 39.2071 88.1478 60.109C51.1355 81.0108 38.8064 110.534 51.2172 137.075C57.322 150.136 69.4499 162.472 87.5254 172.692C105.601 182.913 127.474 189.751 150.604 193.201C197.594 200.205 249.884 193.244 286.897 172.342C323.909 151.44 336.251 121.911 323.84 95.3759H323.828Z" fill="#7F575D"/>
</g>
<g style="mix-blend-mode:multiply" opacity="0.75">
<path d="M169.793 152.941C158.671 151.28 148.165 148.021 139.463 143.101C130.762 138.182 124.947 132.254 122.01 125.975C116.044 113.221 121.973 99.0225 139.765 88.9805C157.558 78.9385 182.688 75.5932 205.277 78.9631C216.399 80.6234 226.899 83.8826 235.606 88.8021C244.314 93.7217 250.123 99.6497 253.059 105.928C259.02 118.682 253.097 132.875 235.305 142.923C217.512 152.971 192.382 156.286 169.793 152.941ZM323.828 95.0991C317.723 82.0378 305.595 69.7021 287.519 59.4817C269.444 49.2614 247.571 42.4233 224.44 38.9734C177.45 31.9692 125.16 38.9304 88.1478 59.8322C51.1355 80.7341 38.8064 110.257 51.2172 136.798C57.322 149.86 69.4499 162.195 87.5254 172.416C105.601 182.636 127.474 189.474 150.604 192.924C197.594 199.928 249.884 192.967 286.897 172.065C323.909 151.163 336.251 121.609 323.84 95.0745L323.828 95.0991Z" fill="#7C5359"/>
</g>
<g style="mix-blend-mode:multiply" opacity="0.76">
<path d="M169.793 152.615C158.671 150.954 148.165 147.695 139.463 142.776C130.762 137.856 124.947 131.928 122.01 125.649C116.044 112.896 121.973 98.6965 139.765 88.6545C157.558 78.6125 182.688 75.2673 205.277 78.6371C216.399 80.2975 226.899 83.5567 235.606 88.4762C244.314 93.3957 250.123 99.3238 253.059 105.602C259.02 118.356 253.097 132.549 235.305 142.597C217.512 152.645 192.382 156.015 169.793 152.615ZM323.828 94.7732C317.723 81.7119 305.595 69.3761 287.519 59.1496C269.444 48.9232 247.571 42.0973 224.44 38.6475C177.45 31.6433 125.16 38.6045 88.1478 59.5063C51.1355 80.4082 38.8064 109.932 51.2172 136.472C57.322 149.534 69.4499 161.869 87.5254 172.09C105.601 182.31 127.474 189.148 150.604 192.598C197.594 199.602 249.884 192.641 286.897 171.739C323.909 150.837 336.251 121.308 323.84 94.7732H323.828Z" fill="#784E54"/>
</g>
<g style="mix-blend-mode:multiply" opacity="0.78">
<path d="M169.793 152.326C158.671 150.665 148.165 147.406 139.463 142.486C130.762 137.567 124.947 131.639 122.01 125.36C116.044 112.606 121.973 98.4075 139.765 88.3655C157.558 78.3235 182.688 74.9782 205.277 78.3481C216.399 80.0023 226.899 83.2676 235.606 88.1871C244.314 93.1067 250.123 99.0347 253.059 105.313C259.02 118.067 253.097 132.26 235.305 142.308C217.512 152.356 192.382 155.683 169.793 152.326ZM323.828 94.4841C317.723 81.4228 305.595 69.0871 287.519 58.8606C269.444 48.6341 247.571 41.8083 224.44 38.3584C177.45 31.3543 125.16 38.3154 88.1478 59.2173C51.1355 80.1191 38.8064 109.642 51.2172 136.183C57.322 149.245 69.4499 161.58 87.5254 171.801C105.601 182.021 127.474 188.859 150.604 192.309C197.594 199.313 249.884 192.352 286.897 171.45C323.909 150.548 336.251 121.007 323.84 94.4718L323.828 94.4841Z" fill="#754A50"/>
</g>
<g style="mix-blend-mode:multiply" opacity="0.8">
<path d="M169.793 152.012C158.671 150.352 148.165 147.092 139.463 142.173C130.762 137.253 124.947 131.325 122.01 125.047C116.044 112.293 121.973 98.0939 139.765 88.0519C157.558 78.0099 182.688 74.6646 205.277 78.0345C216.399 79.6887 226.899 82.954 235.606 87.8735C244.314 92.7931 250.123 98.7211 253.059 105C259.02 117.754 253.097 131.946 235.305 141.995C217.512 152.043 192.382 155.4 169.793 152.012ZM323.828 94.1705C317.723 81.1092 305.595 68.7735 287.519 58.547C269.444 48.3205 247.571 41.4947 224.44 38.0448C177.45 31.0407 125.16 38.0018 88.1478 58.9036C51.1355 79.8055 38.8064 109.329 51.2172 135.87C57.322 148.931 69.4499 161.267 87.5254 171.487C105.601 181.707 127.474 188.546 150.604 191.995C197.594 199 249.884 192.038 286.897 171.137C323.909 150.235 336.251 120.705 323.84 94.1705H323.828Z" fill="#72454C"/>
</g>
<g style="mix-blend-mode:multiply" opacity="0.82">
<path d="M169.793 151.711C158.671 150.05 148.165 146.791 139.463 141.872C130.762 136.952 124.947 131.024 122.01 124.745C116.044 111.992 121.973 97.7926 139.765 87.7506C157.558 77.7086 182.688 74.3633 205.277 77.7332C216.399 79.3874 226.899 82.6527 235.606 87.5723C244.314 92.4918 250.123 98.4198 253.059 104.698C259.02 117.452 253.097 131.645 235.305 141.693C217.512 151.741 192.382 155.081 169.793 151.711ZM323.828 93.8693C317.723 80.8079 305.595 68.4722 287.519 58.2457C269.444 48.0192 247.571 41.1934 224.44 37.7436C177.45 30.7394 125.16 37.7005 88.1478 58.6024C51.1355 79.5042 38.8064 109.028 51.2172 135.568C57.322 148.63 69.4499 160.966 87.5254 171.186C105.601 181.406 127.474 188.244 150.604 191.694C197.594 198.698 249.884 191.737 286.897 170.835C323.909 149.933 336.251 120.404 323.84 93.8693H323.828Z" fill="#6E4147"/>
</g>
<g style="mix-blend-mode:multiply" opacity="0.84">
<path d="M169.793 151.409C158.671 149.749 148.165 146.49 139.463 141.57C130.762 136.651 124.947 130.723 122.01 124.444C116.044 111.69 121.973 97.4912 139.765 87.4492C157.558 77.4072 182.688 74.0619 205.277 77.4318C216.399 79.086 226.899 82.3513 235.606 87.2709C244.314 92.1904 250.123 98.1184 253.059 104.397C259.02 117.151 253.097 131.344 235.305 141.392C217.512 151.44 192.382 154.785 169.793 151.409ZM323.828 93.5679C317.723 80.5065 305.595 68.1708 287.519 57.9443C269.444 47.7179 247.571 40.892 224.44 37.4422C177.45 30.438 125.16 37.3991 88.1478 58.301C51.1355 79.2029 38.8064 108.726 51.2172 135.267C57.322 148.328 69.4499 160.664 87.5254 170.884C105.601 181.105 127.474 187.943 150.604 191.393C197.594 198.397 249.884 191.436 286.897 170.534C323.909 149.632 336.251 120.103 323.84 93.5679H323.828Z" fill="#6B3C43"/>
</g>
<g style="mix-blend-mode:multiply" opacity="0.86">
<path d="M169.793 151.096C158.671 149.435 148.165 146.176 139.463 141.257C130.762 136.337 124.947 130.409 122.01 124.13C116.044 111.377 121.973 97.1776 139.765 87.1356C157.558 77.0936 182.688 73.7483 205.277 77.1182C216.399 78.7724 226.899 82.0378 235.606 86.9573C244.314 91.8768 250.123 97.8049 253.059 104.083C259.02 116.837 253.097 131.03 235.305 141.078C217.512 151.126 192.382 154.472 169.793 151.096ZM323.828 93.2543C317.723 80.1929 305.595 67.8572 287.519 57.6307C269.444 47.4043 247.571 40.5784 224.44 37.1286C177.45 30.1244 125.16 37.0855 88.1478 57.9874C51.1355 78.8892 38.8064 108.413 51.2172 134.953C57.322 148.015 69.4499 160.351 87.5254 170.571C105.601 180.791 127.474 187.629 150.604 191.079C197.594 198.083 249.884 191.122 286.897 170.22C323.909 149.318 336.251 119.801 323.84 93.2912L323.828 93.2543Z" fill="#67373F"/>
</g>
<g style="mix-blend-mode:multiply" opacity="0.88">
<path d="M169.793 150.807C158.671 149.146 148.165 145.887 139.463 140.968C130.762 136.048 124.947 130.12 122.01 123.841C116.044 111.088 121.973 96.8885 139.765 86.8466C157.558 76.8046 182.688 73.4593 205.277 76.8292C216.399 78.4833 226.899 81.7487 235.606 86.6682C244.314 91.5877 250.123 97.5158 253.059 103.794C259.02 116.548 253.097 130.741 235.305 140.789C217.512 150.837 192.382 154.17 169.793 150.807ZM323.828 92.9652C317.723 79.9039 305.595 67.5681 287.519 57.3417C269.444 47.1152 247.571 40.2893 224.44 36.8395C177.45 29.8353 125.16 36.7965 88.1478 57.6983C51.1355 78.6002 38.8064 108.124 51.2172 134.664C57.322 147.726 69.4499 160.061 87.5254 170.282C105.601 180.502 127.474 187.34 150.604 190.784C197.594 197.794 249.884 190.833 286.897 169.931C323.909 149.029 336.251 119.5 323.84 92.9652H323.828Z" fill="#64333A"/>
</g>
<g style="mix-blend-mode:multiply" opacity="0.9">
<path d="M169.793 150.481C158.671 148.82 148.165 145.561 139.463 140.642C130.762 135.722 124.947 129.794 122.01 123.515C116.044 110.762 121.973 96.5626 139.765 86.5206C157.558 76.4786 182.688 73.1334 205.277 76.5032C216.399 78.1574 226.899 81.4228 235.606 86.3423C244.314 91.2618 250.123 97.1899 253.059 103.468C259.02 116.222 253.097 130.415 235.305 140.463C217.512 150.511 192.382 153.869 169.793 150.481ZM323.828 92.6393C317.723 79.5779 305.595 67.2422 287.519 57.0157C269.444 46.7893 247.571 39.9634 224.44 36.5136C177.45 29.5094 125.16 36.4705 88.1478 57.3724C51.1355 78.2743 38.8064 107.798 51.2172 134.338C57.322 147.4 69.4499 159.736 87.5254 169.956C105.601 180.176 127.474 187.014 150.604 190.458C197.594 197.468 249.884 190.507 286.897 169.605C323.909 148.703 336.251 119.199 323.84 92.6762L323.828 92.6393Z" fill="#602E36"/>
</g>
<g style="mix-blend-mode:multiply" opacity="0.92">
<path d="M169.793 150.204C158.671 148.544 148.165 145.285 139.463 140.365C130.762 135.445 124.947 129.517 122.01 123.239C116.044 110.485 121.973 96.286 139.765 86.244C157.558 76.202 182.688 72.8567 205.277 76.2266C216.399 77.8808 226.899 81.1461 235.606 86.0657C244.314 90.9852 250.123 96.9132 253.059 103.192C259.02 115.946 253.097 130.139 235.305 140.187C217.512 150.235 192.382 153.555 169.793 150.204ZM323.828 92.3627C317.723 79.3013 305.595 66.9656 287.519 56.7391C269.444 46.5126 247.571 39.6868 224.44 36.237C177.45 29.2328 125.16 36.1939 88.1478 57.0958C51.1355 77.9976 38.8064 107.521 51.2172 134.062C57.322 147.123 69.4499 159.459 87.5254 169.679C105.601 179.9 127.474 186.738 150.604 190.181C197.594 197.192 249.884 190.231 286.897 169.329C323.909 148.427 336.251 118.897 323.84 92.3627H323.828Z" fill="#5D2A32"/>
</g>
<g style="mix-blend-mode:multiply" opacity="0.94">
<path d="M169.793 149.903C158.671 148.242 148.165 144.983 139.463 140.064C130.762 135.144 124.947 129.216 122.01 122.938C116.044 110.184 121.973 95.9847 139.765 85.9427C157.558 75.9008 182.688 72.5555 205.277 75.9254C216.399 77.5795 226.899 80.8449 235.606 85.7644C244.314 90.6839 250.123 96.6058 253.059 102.891C259.02 115.644 253.097 129.837 235.305 139.885C217.512 149.934 192.382 153.267 169.793 149.903ZM323.828 92.0614C317.723 79.0001 305.595 66.6643 287.519 56.4379C269.444 46.2114 247.571 39.3855 224.44 35.9357C177.45 28.9315 125.16 35.8927 88.1478 56.7945C51.1355 77.6964 38.8064 107.22 51.2172 133.761C57.322 146.822 69.4499 159.158 87.5254 169.378C105.601 179.598 127.474 186.436 150.604 189.88C197.594 196.89 249.884 189.929 286.897 169.027C323.909 148.126 336.251 118.596 323.84 92.0614H323.828Z" fill="#59252D"/>
</g>
<g style="mix-blend-mode:multiply" opacity="0.96">
<path d="M169.793 149.601C158.671 147.941 148.165 144.682 139.463 139.762C130.762 134.843 124.947 128.915 122.01 122.636C116.044 109.882 121.973 95.6832 139.765 85.6412C157.558 75.5992 182.688 72.254 205.277 75.6238C216.399 77.278 226.899 80.5434 235.606 85.4629C244.314 90.3824 250.123 96.3043 253.059 102.589C259.02 115.343 253.097 129.536 235.305 139.584C217.512 149.632 192.382 152.94 169.793 149.601ZM323.828 91.7599C317.723 78.6985 305.595 66.3628 287.519 56.1363C269.444 45.9099 247.571 39.084 224.44 35.6342C177.45 28.63 125.16 35.5911 88.1478 56.493C51.1355 77.3949 38.8064 106.918 51.2172 133.459C57.322 146.52 69.4499 158.856 87.5254 169.076C105.601 179.297 127.474 186.135 150.604 189.579C197.594 196.589 249.884 189.628 286.897 168.726C323.909 147.824 336.251 118.295 323.84 91.7599H323.828Z" fill="#562129"/>
</g>
<g style="mix-blend-mode:multiply" opacity="0.98">
<path d="M169.793 149.3C158.671 147.64 148.165 144.381 139.463 139.461C130.762 134.542 124.947 128.614 122.01 122.335C116.044 109.581 121.973 95.3821 139.765 85.3339C157.558 75.2858 182.688 71.9528 205.277 75.3227C216.399 76.9769 226.899 80.2422 235.606 85.1617C244.314 90.0813 250.123 96.0032 253.059 102.282C259.02 115.042 253.097 129.235 235.305 139.283C217.512 149.331 192.382 152.664 169.793 149.3ZM323.828 91.4587C317.723 78.3974 305.595 66.0617 287.519 55.8352C269.444 45.6087 247.571 38.7829 224.44 35.3331C177.45 28.3289 125.16 35.29 88.1478 56.1919C51.1355 77.0937 38.8064 106.617 51.2172 133.158C57.322 146.219 69.4499 158.555 87.5254 168.775C105.601 178.996 127.474 185.834 150.604 189.277C197.594 196.288 249.884 189.32 286.897 168.425C323.909 147.529 336.251 117.993 323.84 91.4464L323.828 91.4587Z" fill="#521C24"/>
</g>
<g style="mix-blend-mode:multiply">
<path d="M169.793 148.999C158.671 147.338 148.165 144.079 139.463 139.16C130.762 134.24 124.947 128.318 122.01 122.04C116.044 109.286 121.973 95.0868 139.765 85.0387C157.558 74.9906 182.688 71.6576 205.277 75.0275C216.399 76.6816 226.899 79.947 235.606 84.8665C244.314 89.786 250.123 95.7079 253.059 101.986C259.02 114.747 253.097 128.939 235.305 138.987C217.512 149.036 192.382 152.362 169.793 148.999ZM323.828 91.1574C317.723 78.096 305.595 65.7603 287.519 55.5338C269.444 45.3073 247.571 38.4815 224.44 35.0317C177.45 28.0275 125.16 34.9886 88.1478 55.8905C51.1355 76.7923 38.8064 106.316 51.2172 132.857C57.322 145.918 69.4499 158.254 87.5254 168.474C105.601 178.694 127.474 185.532 150.604 188.976C197.594 195.986 249.884 189.019 286.897 168.123C323.909 147.228 336.251 117.692 323.84 91.1574H323.828Z" fill="#4F1820"/>
</g>
</g>
<path opacity="0.15" d="M61.71 148.371C68.2234 155.621 76.7991 162.417 87.5438 168.468C120.595 187.131 166.133 194.492 209.15 190.605L187.534 112.004L61.71 148.371Z" fill="white"/>
<path opacity="0.3" d="M251.94 40.9535C199.072 25.8013 132.604 30.8008 88.1729 55.8965L187.51 112.004L251.94 40.9535Z" fill="#3D588C"/>
<path opacity="0.35" d="M88.1726 55.8965C43.7352 80.9922 34.8829 118.504 61.7101 148.371L187.535 112.004L88.1726 55.8965Z" fill="#3D588C"/>
<path opacity="0.1" d="M287.525 55.5398C276.296 49.3164 264.351 44.42 251.94 40.9534L187.535 112.004L326.694 124.21C333.61 99.9078 320.57 74.2278 287.525 55.5398Z" fill="white"/>
<path opacity="0.15" d="M209.15 190.587C237.58 187.992 264.929 180.52 286.934 168.117C308.939 155.714 322.142 140.266 326.726 124.21L187.535 112.004L209.15 190.587Z" fill="white"/>
</g>
<defs>
<filter id="filter0_f_153_582" x="23.7029" y="-126.419" width="327.651" height="340.887" filterUnits="userSpaceOnUse" color-interpolation-filters="sRGB">
<feFlood flood-opacity="0" result="BackgroundImageFix"/>
<feBlend mode="normal" in="SourceGraphic" in2="BackgroundImageFix" result="shape"/>
<feGaussianBlur stdDeviation="11.4273" result="effect1_foregroundBlur_153_582"/>
</filter>
<linearGradient id="paint0_linear_153_582" x1="46.5576" y1="136.878" x2="46.5576" y2="-12" gradientUnits="userSpaceOnUse">
<stop stop-color="#383AFF"/>
<stop offset="1" stop-color="#0C1527" stop-opacity="0"/>
</linearGradient>
<linearGradient id="paint1_linear_153_582" x1="75.9757" y1="221.107" x2="296.521" y2="90.9237" gradientUnits="userSpaceOnUse">
<stop stop-color="#1566E1"/>
<stop offset="0.98" stop-color="#1566E1"/>
</linearGradient>
<linearGradient id="paint2_linear_153_582" x1="172.511" y1="192.864" x2="173.031" y2="79.2022" gradientUnits="userSpaceOnUse">
<stop stop-color="#089CFC"/>
<stop offset="0.99" stop-color="#2B2DFD"/>
</linearGradient>
<linearGradient id="paint3_linear_153_582" x1="172.514" y1="177.491" x2="173.034" y2="63.8289" gradientUnits="userSpaceOnUse">
<stop stop-color="#089CFC"/>
<stop offset="0.99" stop-color="#2B2DFD"/>
</linearGradient>
<clipPath id="clip0_153_582">
<rect width="375" height="256" fill="white"/>
</clipPath>
</defs>
</svg>
