<svg id="Layer_1" data-name="Layer 1" xmlns="http://www.w3.org/2000/svg" xmlns:xlink="http://www.w3.org/1999/xlink" viewBox="0 0 335.86 95.4"><defs><style>.cls-1{fill:url(#linear-gradient);}.cls-2{fill:url(#linear-gradient-2);}.cls-3{fill:url(#linear-gradient-3);}.cls-4{fill:url(#linear-gradient-4);}.cls-5{fill:url(#linear-gradient-5);}.cls-6{fill:url(#linear-gradient-6);}.cls-7{fill:url(#linear-gradient-7);}.cls-8{fill:url(#linear-gradient-8);}.cls-9{fill:url(#linear-gradient-9);}.cls-10{fill:url(#linear-gradient-10);}.cls-11{fill:url(#linear-gradient-11);}.cls-12{fill:url(#linear-gradient-12);}.cls-13{fill:url(#linear-gradient-13);}.cls-14{fill:url(#linear-gradient-14);}.cls-15{fill:url(#linear-gradient-15);}.cls-16{fill:url(#linear-gradient-16);}.cls-17{stroke:#fff;stroke-miterlimit:10;}</style><linearGradient id="linear-gradient" x1="1.5" y1="63.12" x2="29.11" y2="84.27" gradientUnits="userSpaceOnUse"><stop offset="0.27" stop-color="#079efc"/><stop offset="0.42" stop-color="#1574fc"/><stop offset="0.56" stop-color="#2052fd"/><stop offset="0.69" stop-color="#283afd"/><stop offset="0.81" stop-color="#2c2bfd"/><stop offset="0.91" stop-color="#2e26fd"/></linearGradient><linearGradient id="linear-gradient-2" x1="-8.48" y1="92.9" x2="26.24" y2="68.9" xlink:href="#linear-gradient"/><linearGradient id="linear-gradient-3" x1="-2.82" y1="49.13" x2="16.41" y2="65.56" xlink:href="#linear-gradient"/><linearGradient id="linear-gradient-4" x1="20.74" y1="70.32" x2="5.13" y2="55.64" gradientUnits="userSpaceOnUse"><stop offset="0.27" stop-color="#079efc"/><stop offset="0.4" stop-color="#1678fc"/><stop offset="0.53" stop-color="#2359fd"/><stop offset="0.6" stop-color="#284dfd"/><stop offset="0.71" stop-color="#2b3afd"/><stop offset="0.82" stop-color="#2d2bfd"/><stop offset="0.91" stop-color="#2e26fd"/></linearGradient><linearGradient id="linear-gradient-5" x1="13.13" y1="71.58" x2="29.67" y2="53.87" xlink:href="#linear-gradient"/><linearGradient id="linear-gradient-6" x1="38.2" y1="52.98" x2="23.87" y2="59.27" xlink:href="#linear-gradient"/><linearGradient id="linear-gradient-7" x1="-8.28" y1="52.06" x2="14.43" y2="38.25" xlink:href="#linear-gradient"/><linearGradient id="linear-gradient-8" x1="3.08" y1="46.99" x2="18.46" y2="32.31" xlink:href="#linear-gradient"/><linearGradient id="linear-gradient-9" x1="37" y1="55.1" x2="23.02" y2="39.55" xlink:href="#linear-gradient"/><linearGradient id="linear-gradient-10" x1="30.28" y1="48.86" x2="17.35" y2="31.38" xlink:href="#linear-gradient"/><linearGradient id="linear-gradient-11" x1="5.02" y1="-0.11" x2="14.8" y2="24.59" xlink:href="#linear-gradient"/><linearGradient id="linear-gradient-12" x1="33.66" y1="38.23" x2="24.57" y2="24.25" xlink:href="#linear-gradient"/><linearGradient id="linear-gradient-13" x1="30.99" y1="4.26" x2="13.52" y2="16.61" xlink:href="#linear-gradient"/><linearGradient id="linear-gradient-14" x1="33.22" y1="32.36" x2="13.47" y2="14.71" xlink:href="#linear-gradient"/><linearGradient id="linear-gradient-15" x1="729.78" y1="-6768.24" x2="720.69" y2="-6782.22" gradientTransform="translate(-6772.93 -696.12) rotate(90)" xlink:href="#linear-gradient"/><linearGradient id="linear-gradient-16" x1="4.64" y1="27.44" x2="19.84" y2="18.18" xlink:href="#linear-gradient"/></defs><polygon class="cls-1" points="33.54 67.09 16.77 67.09 16.77 79.77 16.77 79.77 16.77 95.4 18.31 93.47 18.31 82.32 33.54 67.09"/><polygon class="cls-2" points="0 67.09 16.77 67.09 16.77 79.77 16.77 79.77 16.77 95.4 15.24 93.47 15.24 82.32 0 67.09"/><polyline class="cls-3" points="0 67.09 0 50.31 16.77 50.31"/><polyline class="cls-4" points="16.77 50.31 16.77 67.09 0 67.09"/><polyline class="cls-5" points="33.54 67.09 16.77 67.09 16.77 50.31"/><polyline class="cls-6" points="16.77 50.31 33.54 50.31 33.54 67.09"/><polyline class="cls-7" points="16.77 50.31 0 50.31 0 33.54"/><polyline class="cls-8" points="0 33.54 16.77 33.54 16.77 50.31"/><polyline class="cls-9" points="33.54 33.54 33.54 50.31 16.77 50.31"/><polyline class="cls-10" points="16.77 50.31 16.77 33.54 33.54 33.54"/><polyline class="cls-11" points="0 16.77 16.77 16.77 16.77 0"/><polyline class="cls-12" points="33.54 16.77 33.54 33.54 16.77 33.54"/><polyline class="cls-13" points="33.54 16.77 16.77 16.77 16.77 0"/><polyline class="cls-14" points="16.77 33.54 16.77 16.77 33.54 16.77"/><polyline class="cls-15" points="16.77 33.54 0 33.54 0 16.77"/><polyline class="cls-16" points="0 16.77 16.77 16.77 16.77 33.54"/><path class="cls-17" d="M496.17,290c0,4.17-3.17,6.61-9.23,6.61H475.21V272.21h11.05c5.67,0,8.7,2.47,8.7,6.33a5.86,5.86,0,0,1-3,5.36A6,6,0,0,1,496.17,290Zm-16.58-14.19v6.71h6.2c3,0,4.75-1.11,4.75-3.34s-1.72-3.37-4.75-3.37Zm12.17,13.74c0-2.44-1.79-3.51-5.09-3.51h-7.08v7h7.08C490,293,491.76,291.93,491.76,289.5Z" transform="translate(-424.82 -241.63)"/><path class="cls-17" d="M519.36,278l-8.43,20.06c-1.65,4.21-3.94,5.5-6.94,5.5a7.3,7.3,0,0,1-4.82-1.71l1.68-3.2a4.51,4.51,0,0,0,3.11,1.29c1.48,0,2.35-.73,3.16-2.57l.31-.73L499.57,278H504l5.66,13.73L515.31,278Z" transform="translate(-424.82 -241.63)"/><path class="cls-17" d="M534.46,277.78v4.14a5.24,5.24,0,0,0-1-.11c-3.2,0-5.22,1.95-5.22,5.74v9H524V278h4v2.71C529.27,278.75,531.46,277.78,534.46,277.78Z" transform="translate(-424.82 -241.63)"/><path class="cls-17" d="M538.43,287.27A9.59,9.59,0,1,1,548,296.8,9.2,9.2,0,0,1,538.43,287.27Zm14.94,0c0-3.55-2.3-5.81-5.36-5.81s-5.33,2.26-5.33,5.81,2.29,5.81,5.33,5.81S553.37,290.82,553.37,287.27Z" transform="translate(-424.82 -241.63)"/><path class="cls-17" d="M581.44,285.92v10.64h-4.21V286.47c0-3.3-1.59-4.9-4.28-4.9-3,0-5,1.88-5,5.6v9.39h-4.21V278h4v2.4a7.69,7.69,0,0,1,6.2-2.61C578.24,277.78,581.44,280.32,581.44,285.92Z" transform="translate(-424.82 -241.63)"/><path class="cls-17" d="M621.58,272.21v24.35H618l-13-16.49v16.49h-4.34V272.21h3.6l13,16.49V272.21Z" transform="translate(-424.82 -241.63)"/><path class="cls-17" d="M646.42,288.66H632.3c.5,2.72,2.69,4.45,5.83,4.45a6.39,6.39,0,0,0,4.89-2l2.25,2.67a8.94,8.94,0,0,1-7.24,3c-6,0-9.95-4-9.95-9.53a9.09,9.09,0,0,1,9.31-9.49c5.25,0,9.1,3.79,9.1,9.6C646.49,287.72,646.45,288.25,646.42,288.66Zm-14.16-2.88h10.22a5,5,0,0,0-5.09-4.52A5,5,0,0,0,632.26,285.78Z" transform="translate(-424.82 -241.63)"/><path class="cls-17" d="M663.41,295.55a6.53,6.53,0,0,1-4,1.25c-3.94,0-6.2-2.16-6.2-6.26V281.6h-3v-3.47h3v-4.25h4.21v4.25h4.82v3.47h-4.82v8.84c0,1.8.88,2.78,2.5,2.78a3.74,3.74,0,0,0,2.36-.77Z" transform="translate(-424.82 -241.63)"/><path class="cls-17" d="M696.67,278,690,296.56h-4l-4.65-12.8-4.72,12.8h-4L666,278h4l4.76,13.7,4.95-13.7h3.54L688,291.76,692.93,278Z" transform="translate(-424.82 -241.63)"/><path class="cls-17" d="M699.64,287.27a9.59,9.59,0,1,1,9.57,9.53A9.19,9.19,0,0,1,699.64,287.27Zm14.93,0c0-3.55-2.29-5.81-5.36-5.81s-5.33,2.26-5.33,5.81,2.29,5.81,5.33,5.81S714.57,290.82,714.57,287.27Z" transform="translate(-424.82 -241.63)"/><path class="cls-17" d="M735.33,277.78v4.14a5.24,5.24,0,0,0-1-.11c-3.2,0-5.22,1.95-5.22,5.74v9h-4.22V278h4v2.71C730.14,278.75,732.33,277.78,735.33,277.78Z" transform="translate(-424.82 -241.63)"/><path class="cls-17" d="M748.3,288.59l-3.13,3.06v4.91H741V270.75h4.21v15.58L753.9,278H759l-7.52,7.79,8.22,10.78h-5.12Z" transform="translate(-424.82 -241.63)"/></svg>