<svg xmlns="http://www.w3.org/2000/svg" xmlns:xlink="http://www.w3.org/1999/xlink" viewBox="0 0 1339.19 472.51"><defs><style>.cls-1{fill:url(#linear-gradient);}</style><linearGradient id="linear-gradient" x1="73.09" y1="384.91" x2="90.06" y2="47.94" gradientUnits="userSpaceOnUse"><stop offset="0" stop-color="#089cfc"/><stop offset="0.99" stop-color="#2b2dfd"/></linearGradient></defs><g id="Warstwa_2" data-name="Warstwa 2"><g id="Layer_1" data-name="Layer 1"><polygon class="cls-1" points="163.01 81.01 82 0 0.99 81.01 0 81.01 0 335.01 0.5 335.01 70 404.51 70 461.01 70.5 461.01 82 472.51 93.5 461.01 94 461.01 94 404.51 163.5 335.01 164 335.01 164 81.01 163.01 81.01"/><path d="M702,150.43h26.5L783,233.9h.32V150.43h20V262.79H777.88l-55.54-86.17H722v86.17H702Z"/><path d="M841.84,231.37c1.27,11.26,9.84,18.09,20.47,18.09,9.52,0,15.71-4.45,20.47-10.32l13.65,10.32c-8.89,11-20.15,15.23-32.21,15.23-23,0-41.42-16-41.42-40s18.41-40,41.42-40c21.26,0,35.7,14.92,35.7,41.42v5.24Zm39-14.29C880.72,206,873.42,199,861.52,199c-11.27,0-18.25,7.14-19.68,18.09Z"/><path d="M908.81,202.8V186.61h15.71V164.56h19v22.05h21V202.8h-21v33.33c0,7.61,2.23,12.37,10.64,12.37,3.33,0,7.93-.63,10.31-2.38v16c-4,1.91-10.63,2.54-15.07,2.54-20.16,0-24.92-9-24.92-27V202.8Z"/><path d="M969.12,186.61h20.62l16.51,53.32h.32L1022,186.61h20.63l16.5,53.32h.32l15.87-53.32h19.2l-25.87,76.18h-18.88l-18.09-52.05h-.32l-16,52.05H995.62Z"/><path d="M1143.36,184.71c23,0,41.42,16,41.42,40s-18.41,40-41.42,40-41.42-16-41.42-40S1120.35,184.71,1143.36,184.71Zm0,62.84c14,0,22.38-11,22.38-22.85s-8.41-22.85-22.38-22.85S1121,212.8,1121,224.7,1129.4,247.55,1143.36,247.55Z"/><path d="M1202.56,186.61h19v12.06h.32c4.12-8.72,12.53-14,22.53-14a24.83,24.83,0,0,1,6.83,1.11v18.41a38.42,38.42,0,0,0-9.21-1.43c-17.93,0-20.47,15.08-20.47,19.2v40.79h-19Z"/><path d="M1264.29,142.82h19v75.37l29.36-31.58h24.44l-32.69,34.6,34.75,41.58H1314l-30.31-38.88h-.32v38.88h-19Z"/><path d="M285.89,150.43h32.37c17.14,0,36.18,4.29,36.18,29.68,0,11.42-6.82,20.63-20.15,23.33v.31c14.76,1.11,25.07,11.91,25.07,27.62,0,25.86-22.38,31.42-37.61,31.42H285.89ZM296.36,199H318.1c21.74,0,25.87-11.9,25.87-18.88C344,164.4,332.86,160,319.53,160H296.36Zm0,54.27h24c24.6,0,28.57-13.64,28.57-21.58,0-16.66-13.65-23.17-27-23.17H296.36Z"/><path d="M403.8,285.48c-3.65,9.36-9.68,15.39-20.16,15.39a36.89,36.89,0,0,1-9.36-1.43l1-8.88c2.7.79,5.71,1.74,8.57,1.74,7,0,10-6.5,12.22-12.22l6.67-17-29.84-73.63h10.63l24.28,61.73,23.65-61.73h10.15Z"/><path d="M456.64,210.1c0-5.39-.79-16.82-.79-20.63h9.52c.16,5.4.32,11.43.64,12.86,4.76-8.58,12.38-14.76,23.32-14.76a22.21,22.21,0,0,1,5.56.79l-1.11,9.36a11.91,11.91,0,0,0-3.65-.63c-16.51,0-24,11.42-24,25.71v40h-9.52Z"/><path d="M541.07,187.57c22.53,0,38.56,16.18,38.56,38.56s-16,38.56-38.56,38.56-38.56-16.19-38.56-38.56S518.54,187.57,541.07,187.57Zm0,68.55c17.93,0,29-13.49,29-30s-11.11-30-29-30-29,13.48-29,30S523.14,256.12,541.07,256.12Z"/><path d="M600.9,210.1c0-5.39-.79-16.82-.79-20.63h9.52c.16,5.4.32,11.43.63,12.86h.48c3.81-8.1,13.17-14.76,25.07-14.76,22.85,0,27.93,15.55,27.93,31.58v43.64h-9.52V219.62c0-11.9-3.33-23.48-18.41-23.48-14.12,0-25.39,9.83-25.39,30v36.66H600.9Z"/></g></g></svg>